<svg xmlns="http://www.w3.org/2000/svg" viewBox="0 0 420 113"><defs><style>.cls-1{fill:#1a1a1a;}</style></defs><title>B2</title><g id="Layer_2" data-name="Layer 2"><g id="building_vectors"><polygon id="B2" class="cls-1" points="420 20 420 113 0 113 0 99 16 98.81 16 88 56 88 56 98.35 85.66 98 85.66 85 127.83 85 127.83 40 160 25.29 160 6 167 6 167 22.09 171 20.27 171 0 178 0 178 17.07 189.08 12 189.08 71 208 71 208 57 229 57 229 51 236 51 236 57 244 57 244 51 251 51 251 57 256.35 57 256.35 44 262 44 270.5 35.5 338 35.5 346.5 44 348.71 44 348.71 48 355 48 355 71 381.85 71 381.85 20 386 20 386 12 390 12 390 20 420 20"/></g></g></svg>