<svg xmlns="http://www.w3.org/2000/svg" viewBox="0 0 420 37"><defs><style>.cls-1{fill:#282828;}</style></defs><title>B3</title><g id="Layer_2" data-name="Layer 2"><g id="building_vectors"><polygon id="B3" class="cls-1" points="420 37 420 37 420 18 411.21 17 404.18 17 397.15 18 388.37 15 376.07 15 376.07 15 370.8 16 370.8 16 365.52 15 360.25 15 360.25 15 354.98 17 346.19 17 340.92 15 340.92 15 312.8 15 302.26 17 295.23 17 277.66 11 251.3 11 251.3 10 251.3 0 235.48 0 235.48 19 224.94 19 224.94 19 224.94 0 210.88 0 210.88 22 189.79 22 189.79 9 189.79 9 170.46 9 170.46 7 170.46 7 163.43 7 163.43 1 124.77 1 124.77 15 121.25 15 121.25 15 121.25 10 107.2 10 107.2 7 96.65 7 89.62 11 80.84 11 80.84 7 80.84 7 66.78 7 66.78 11 61.51 11 61.51 9 54.48 9 54.48 2 42.18 2 42.18 16 19.33 16 19.33 19 12.3 19 12.3 10 5.27 10 5.27 19 0 19 0 19 0 37 420 37"/></g></g></svg>