<svg xmlns="http://www.w3.org/2000/svg" viewBox="0 0 401 86"><defs><style>.cls-1{fill:#0c0c0c;}</style></defs><title>B4</title><g id="Layer_2" data-name="Layer 2"><g id="building_vectors"><polygon id="B4" class="cls-1" points="0 86 0 53 49.53 53 49.53 30 55.43 33 55.43 44 75.48 44 75.48 45 75.48 51 97.89 47 97.89 51 115.58 51 115.58 44 128.56 44 133.27 18 137.99 18 137.99 0 150.97 0 150.97 7 166.3 7 166.3 18 179.27 28 179.27 41 183.99 43 183.99 57 196.96 57 196.96 25 196.96 25 201.68 25 201.68 29 212.29 33 212.29 45 215.83 45 215.83 57 215.83 57 219.37 57 219.37 57 219.37 59 234.7 59 234.7 24 241.78 34 245.32 34 245.32 19 251.22 15 251.22 53 260.65 53 260.65 8 273.62 8 273.62 14 279.52 14 279.52 53 284.24 53 284.24 27 312.54 27 312.54 52 316.08 52 316.08 61 318.44 61 326.7 57 326.7 16 343.21 16 343.21 32 351.46 32 351.46 37 357.36 37 357.36 37 357.36 41 359.72 41 359.72 58 370.33 58 370.33 62 383.31 62 383.31 24 392.74 24 392.74 26 392.74 48 393.92 52 393.92 52 398.64 52 401 48 401 86 0 86"/></g></g></svg>