<?xml version="1.0" encoding="utf-8"?>
<!-- Generator: Adobe Illustrator 23.0.3, SVG Export Plug-In . SVG Version: 6.00 Build 0)  -->
<svg version="1.1" id="Layer_1" xmlns="http://www.w3.org/2000/svg" xmlns:xlink="http://www.w3.org/1999/xlink" x="0px" y="0px"
	 viewBox="0 0 401 86" style="enable-background:new 0 0 401 86;" xml:space="preserve">
<style type="text/css">
	.st0{fill:#1A1A1A;}
	.st1{fill:#0C0C0C;}
	.st2{fill:#282828;}
</style>
<title>B5</title>
<g>
	<g id="building_vectors">
		<polygon id="B5" class="st0" points="401,86 401,63 362.2,63 362.2,49 320.8,49 320.8,61 271.6,61 271.6,49 263.9,49 263.9,45 
			249.7,45 249.7,72 241.9,72 241.9,62 238,62 238,57 209.6,57 209.6,60 209.6,62 190.1,62 190.1,35 188.9,35 188.9,31 178.5,31 
			178.5,21 152.6,21 152.6,25 144.9,25 144.9,25 144.9,29 121.6,29 121.6,18 117.7,18 117.7,0 103.5,0 103.5,42 93.1,42 93.1,59 
			80.2,59 80.2,33 33.6,33 33.6,20 27.2,20 27.2,52 25.9,52 0,52 0,86 		"/>
	</g>
</g>
<g>
	<g id="building_vectors_1_">
		<polygon id="B4" class="st1" points="0,86 0,70.3 49.5,70.3 49.5,47.3 55.4,50.3 55.4,61.3 75.5,61.3 75.5,62.3 75.5,68.3 
			97.9,64.3 97.9,68.3 115.6,68.3 115.6,61.3 128.6,61.3 133.3,35.3 138,35.3 138,17.3 151,17.3 151,24.3 166.3,24.3 166.3,35.3 
			179.3,45.3 179.3,58.3 184,60.3 184,74.3 197,74.3 197,42.3 197,42.3 201.7,42.3 201.7,46.3 212.3,50.3 212.3,62.3 215.8,62.3 
			215.8,74.3 215.8,74.3 219.4,74.3 219.4,74.3 219.4,76.3 234.7,76.3 234.7,41.3 241.8,51.3 245.3,51.3 245.3,36.3 251.2,32.3 
			251.2,70.3 260.6,70.3 260.6,25.3 273.6,25.3 273.6,31.3 279.5,31.3 279.5,70.3 284.2,70.3 284.2,44.3 312.5,44.3 312.5,69.3 
			316.1,69.3 316.1,78.3 318.4,78.3 326.7,74.3 326.7,33.3 343.2,33.3 343.2,49.3 351.5,49.3 351.5,54.3 357.4,54.3 357.4,54.3 
			357.4,58.3 359.7,58.3 359.7,75.3 370.3,75.3 370.3,79.3 383.3,79.3 383.3,41.3 392.7,41.3 392.7,43.3 392.7,65.3 393.9,69.3 
			393.9,69.3 398.6,69.3 401,65.3 401,86 		"/>
	</g>
</g>
<g>
	<g id="building_vectors_2_">
		<polygon id="B3" class="st2" points="401,86 401,86 401,79.3 392.6,78.3 385.9,78.3 379.2,79.3 370.8,76.3 359.1,76.3 359.1,76.3 
			354,77.3 354,77.3 349,76.3 344,76.3 344,76.3 338.9,78.3 330.5,78.3 325.5,76.3 325.5,76.3 298.6,76.3 288.6,78.3 281.9,78.3 
			265.1,72.3 239.9,72.3 239.9,71.3 239.9,61.3 224.8,61.3 224.8,80.3 214.8,80.3 214.8,80.3 214.8,61.3 201.3,61.3 201.3,83.3 
			181.2,83.3 181.2,70.3 181.2,70.3 162.7,70.3 162.7,68.3 162.7,68.3 156,68.3 156,62.3 119.1,62.3 119.1,76.3 115.8,76.3 
			115.8,76.3 115.8,71.3 102.4,71.3 102.4,68.3 92.3,68.3 85.6,72.3 77.2,72.3 77.2,68.3 77.2,68.3 63.8,68.3 63.8,72.3 58.7,72.3 
			58.7,70.3 52,70.3 52,63.3 40.3,63.3 40.3,77.3 18.5,77.3 18.5,80.3 11.7,80.3 11.7,71.3 5,71.3 5,80.3 0,80.3 0,80.3 0,86 		"/>
	</g>
</g>
</svg>
