<svg xmlns="http://www.w3.org/2000/svg" viewBox="0 0 401 86"><defs><style>.cls-1{fill:#1a1a1a;}</style></defs><title>B5</title><g id="Layer_2" data-name="Layer 2"><g id="building_vectors"><polygon id="B5" class="cls-1" points="401 86 401 63 362.19 63 362.19 49 320.8 49 320.8 61 271.64 61 271.64 49 263.88 49 263.88 45 249.66 45 249.66 72 241.89 72 241.89 62 238.01 62 238.01 57 209.56 57 209.56 60 209.56 62 190.15 62 190.15 35 188.86 35 188.86 31 178.51 31 178.51 21 152.64 21 152.64 25 144.88 25 144.88 25 144.88 29 121.59 29 121.59 18 117.71 18 117.71 0 103.48 0 103.48 42 93.14 42 93.14 59 80.2 59 80.2 33 33.63 33 33.63 20 27.16 20 27.16 52 25.87 52 0 52 0 86 401 86"/></g></g></svg>