<svg xmlns="http://www.w3.org/2000/svg" viewBox="0 0 401 45"><defs><style>.cls-1{fill:#282828;}</style></defs><title>B6</title><g id="Layer_2" data-name="Layer 2"><g id="building_vectors"><polyline id="B6" class="cls-1" points="0 45 0 24.23 13.12 28.85 26.25 28.85 26.25 13.85 43.74 13.85 43.74 10.38 80.2 10.38 80.2 15 80.2 15 88.95 15 88.95 17.31 88.95 17.31 110.82 17.31 110.82 19.61 110.82 19.61 129.78 19.61 129.78 30 154.57 30 154.57 15 198.31 15 198.31 8.08 204.15 8.08 204.15 15 214.35 15 214.35 11.54 223.1 11.54 223.1 9.23 234.77 9.23 234.77 9.23 234.77 13.85 236.22 13.85 244.97 13.85 244.97 19.61 246.43 19.61 271.22 19.61 271.22 6.92 304.76 6.92 304.76 10.38 323.72 10.38 323.72 19.61 323.72 19.61 331.01 19.61 331.01 23.08 348.5 23.08 348.5 21.92 348.5 8.08 380.58 8.08 380.58 0 401 0 401 45 0 45 0 45"/></g></g></svg>