<svg xmlns="http://www.w3.org/2000/svg" viewBox="0 0 401.17 73"><defs><style>.cls-1{fill:#333;}</style></defs><title>B7</title><g id="Layer_2" data-name="Layer 2"><g id="building_vectors"><polygon id="B7" class="cls-1" points="401.17 57.5 401 73 0 73 0 58 57 58 57 47 62 47 62 58 67.43 58 67.35 53 72.37 58 72.37 41 132.61 41 132.61 34 145 34 145 12 152 12 152 34 159 34 159 0 167 0 167 34 254.09 34 254.09 44 323 44 323 25 329 25 329 44 339 44 339 34 344 34 344 44 351.48 44 351.48 53 370.56 53 370.56 58 401.17 57.5"/></g></g></svg>