<svg xmlns="http://www.w3.org/2000/svg" viewBox="0 0 276.32 1611.06"><defs><style>.cls-1{fill:#2d2d2d;}.cls-2{fill:#1c1c1c;}.cls-3{fill:#3a3a3a;}.cls-4{fill:#191919;}</style></defs><title>left cyber building</title><g id="Layer_2" data-name="Layer 2"><g id="assets"><g id="left_cyber_building" data-name="left cyber building"><rect class="cls-1" y="204.06" width="269.9" height="1407"/><g id="accents"><rect class="cls-2" x="205.72" y="203.79" width="35.3" height="1290.27"/><polygon class="cls-2" points="205.72 203.79 146 203.79 146 250.52 205.72 385.54 205.72 203.79"/><rect class="cls-2" x="241.02" y="203.79" width="35.3" height="33.7"/><rect class="cls-2" x="241.02" y="330.55" width="35.3" height="33.7"/><rect class="cls-2" x="241.02" y="457.31" width="35.3" height="33.7"/><rect class="cls-2" x="241.02" y="584.08" width="35.3" height="33.7"/><rect class="cls-2" x="241.02" y="710.84" width="35.3" height="33.7"/><rect class="cls-2" x="241.02" y="837.6" width="35.3" height="33.7"/><rect class="cls-2" x="241.02" y="964.36" width="35.3" height="33.7"/><rect class="cls-2" x="241.02" y="1086.55" width="35.3" height="33.7"/><rect class="cls-2" x="241.02" y="1213.31" width="35.3" height="33.7"/><rect class="cls-2" x="241.02" y="1340.08" width="35.3" height="33.7"/><rect class="cls-2" x="241.02" y="1466.84" width="35.3" height="27.22"/></g><polygon class="cls-3" points="258.14 191.2 258.14 204.06 12 204.06 12 191.2 84.28 0 185.86 0 258.14 191.2"/><g id="railing"><rect class="cls-4" x="7" y="177.06" width="6" height="27"/><rect class="cls-4" x="26" y="177.06" width="6" height="27"/><rect class="cls-4" x="45" y="177.06" width="6" height="27"/><rect class="cls-4" x="64" y="177.06" width="6" height="27"/><rect class="cls-4" x="83" y="177.06" width="6" height="27"/><rect class="cls-4" x="102" y="177.06" width="6" height="27"/><rect class="cls-4" x="121" y="177.06" width="6" height="27"/><rect class="cls-4" x="140" y="177.06" width="6" height="27"/><rect class="cls-4" x="159" y="177.06" width="6" height="27"/><rect class="cls-4" x="178" y="177.06" width="6" height="27"/><rect class="cls-4" x="197" y="177.06" width="6" height="27"/><rect class="cls-4" x="216" y="177.06" width="6" height="27"/><rect class="cls-4" x="235" y="177.06" width="6" height="27"/><rect class="cls-4" x="254" y="177.06" width="6" height="27"/><polygon class="cls-4" points="270 174.06 266.13 177.06 0 177.06 0 170.06 270 170.06 270 174.06"/></g></g></g></g></svg>