<svg xmlns="http://www.w3.org/2000/svg" viewBox="0 0 189.79 572"><defs><style>.cls-1{fill:#1e1e1e;}</style></defs><title>left construction</title><g id="Layer_2" data-name="Layer 2"><g id="assets"><g id="left_construction" data-name="left construction"><rect x="55.98" width="22.74" height="572"/><rect x="89.21" width="6.12" height="572"/><rect x="118.95" width="6.12" height="572"/><rect x="89.21" y="220.4" width="35.86" height="6.12"/><rect x="89.21" y="355.97" width="35.86" height="6.12"/><polyline class="cls-1" points="158 36.73 0 36.73 0 0 189.79 0 189.79 22.44"/><polyline class="cls-1" points="158 170.55 0 170.55 0 133.82 189.79 133.82 189.79 156.25"/><polyline class="cls-1" points="158 304.37 0 304.37 0 267.63 189.79 267.63 189.79 290.07"/><polyline class="cls-1" points="158 438.18 0 438.18 0 401.45 189.79 401.45 189.79 423.88"/><polyline class="cls-1" points="158 572 0 572 0 535.27 189.79 535.27 189.79 557.7"/></g></g></g></svg>