<svg xmlns="http://www.w3.org/2000/svg" viewBox="0 0 532 896"><defs><style>.cls-1{fill:#3a3a3a;}.cls-2{fill:#161616;}.cls-3{fill:#282828;}.cls-4{fill:#303030;}.cls-5{fill:#1e1e1e;}.cls-6{fill:#5e5e5e;}.cls-7{fill:#494949;}.cls-8{fill:#353535;}</style></defs><title>right mid building</title><g id="Layer_2" data-name="Layer 2"><g id="assets"><g id="right_mid_building" data-name="right mid building"><rect class="cls-1" x="67" width="465" height="574"/><g id="layer_3" data-name="layer 3"><polygon class="cls-2" points="47 670 31 712 61 712 61 670 47 670"/><polygon class="cls-3" points="31 712 31 659 47 612.13 47 670 31 712"/><rect class="cls-4" x="16" y="531" width="31" height="81"/><polygon class="cls-2" points="31 659 0 659 16 612 47 612 31 659"/><polygon class="cls-3" points="0 659 0 588 16 531 16 612 0 659"/></g><polygon class="cls-4" points="67 313.17 50.75 313.17 50.75 82 67 0 67 313.17"/><g id="layer_2-2" data-name="layer 2"><polygon class="cls-4" points="47 670 47 580 67 518.61 67 670 47 670"/><polygon class="cls-2" points="47 580 39 580 67 487 67 519 47 580"/><polygon class="cls-5" points="39 580 39 353 67 247.06 67 487 39 580"/></g><rect class="cls-6" x="93" y="470" width="439" height="426"/><polygon class="cls-7" points="93 470 61 570 61 774 93 692.74 93 470"/><polygon class="cls-8" points="61 774 78 774 93 736.3 93 692.76 61 774"/><polygon class="cls-7" points="78 774 78 896 93 896 93 736 78 774"/></g></g></g></svg>