<svg xmlns="http://www.w3.org/2000/svg" xmlns:xlink="http://www.w3.org/1999/xlink" viewBox="0 0 344 1621"><defs><style>.cls-1{fill:none;}.cls-2{fill:#5e5e5e;}.cls-3{clip-path:url(#clip-path);}.cls-4{fill:#515151;}.cls-5{fill:#494949;}.cls-6{clip-path:url(#clip-path-2);}.cls-7{fill:#3d3d3d;}</style><clipPath id="clip-path"><path class="cls-1" d="M344,744S195,608,135,608c-208,262-82.5,946.5-20,1009H344Z"/></clipPath><clipPath id="clip-path-2"><path class="cls-1" d="M241,1183H343V0H56C-57,651,136,663,241,1183Z"/></clipPath></defs><title>right cyber building</title><g id="Layer_2" data-name="Layer 2"><g id="assets"><g id="right_cyber_building" data-name="right cyber building"><path class="cls-2" d="M343,748S194,612,134,612c-208,262-82.5,946.5-20,1009H343Z"/><g class="cls-3"><g id="lines_bottom" data-name="lines bottom"><rect class="cls-4" y="732" width="344" height="7"/><rect class="cls-4" y="767" width="344" height="7"/><rect class="cls-4" y="802" width="344" height="7"/><rect class="cls-4" y="837" width="344" height="7"/><rect class="cls-4" y="872" width="344" height="7"/><rect class="cls-4" y="907" width="344" height="7"/><rect class="cls-4" y="942" width="344" height="7"/><rect class="cls-4" y="977" width="344" height="7"/><rect class="cls-4" y="1012" width="344" height="7"/><rect class="cls-4" y="1047" width="344" height="7"/><rect class="cls-4" y="1082" width="344" height="7"/><rect class="cls-4" y="1117" width="344" height="7"/><rect class="cls-4" y="1152" width="344" height="7"/><rect class="cls-4" y="1187" width="344" height="7"/><rect class="cls-4" y="1222" width="344" height="7"/><rect class="cls-4" y="1257" width="344" height="7"/><rect class="cls-4" y="1292" width="344" height="7"/><rect class="cls-4" y="1327" width="344" height="7"/><rect class="cls-4" y="1362" width="344" height="7"/><rect class="cls-4" y="1397" width="344" height="7"/><rect class="cls-4" y="1432" width="344" height="7"/><rect class="cls-4" y="1467" width="344" height="7"/></g></g><path class="cls-5" d="M241,1183H343V0H56C-57,651,136,663,241,1183Z"/><g class="cls-6"><g id="lines"><rect class="cls-7" y="25" width="344" height="7"/><rect class="cls-7" y="61" width="344" height="7"/><rect class="cls-7" y="97" width="344" height="7"/><rect class="cls-7" y="133" width="344" height="7"/><rect class="cls-7" y="169" width="344" height="7"/><rect class="cls-7" y="205" width="344" height="7"/><rect class="cls-7" y="241" width="344" height="7"/><rect class="cls-7" y="277" width="344" height="7"/><rect class="cls-7" y="313" width="344" height="7"/><rect class="cls-7" y="349" width="344" height="7"/><rect class="cls-7" y="385" width="344" height="7"/><rect class="cls-7" y="421" width="344" height="7"/><rect class="cls-7" y="457" width="344" height="7"/><rect class="cls-7" y="493" width="344" height="7"/><rect class="cls-7" y="529" width="344" height="7"/><rect class="cls-7" y="565" width="344" height="7"/><rect class="cls-7" y="601" width="344" height="7"/><rect class="cls-7" y="637" width="344" height="7"/><rect class="cls-7" y="673" width="344" height="7"/><rect class="cls-7" y="709" width="344" height="7"/><rect class="cls-7" y="745" width="344" height="7"/><rect class="cls-7" y="781" width="344" height="7"/><rect class="cls-7" y="817" width="344" height="7"/><rect class="cls-7" y="853" width="344" height="7"/><rect class="cls-7" y="889" width="344" height="7"/><rect class="cls-7" y="925" width="344" height="7"/><rect class="cls-7" y="961" width="344" height="7"/><rect class="cls-7" y="997" width="344" height="7"/><rect class="cls-7" y="1033" width="344" height="7"/><rect class="cls-7" y="1069" width="344" height="7"/><rect class="cls-7" y="1105" width="344" height="7"/><rect class="cls-7" y="1141" width="344" height="7"/><rect class="cls-7" y="1177" width="344" height="7"/><rect class="cls-7" y="1203" width="344" height="7"/></g></g></g></g></g></svg>