<?xml version="1.0" encoding="utf-8"?>
<!-- Generator: Adobe Illustrator 13.0.2, SVG Export Plug-In  -->
<!DOCTYPE svg PUBLIC "-//W3C//DTD SVG 1.1//EN" "http://www.w3.org/Graphics/SVG/1.1/DTD/svg11.dtd" [
	<!ENTITY ns_flows "http://ns.adobe.com/Flows/1.0/">
]>
<svg version="1.1"
	 xmlns="http://www.w3.org/2000/svg" xmlns:xlink="http://www.w3.org/1999/xlink" xmlns:a="http://ns.adobe.com/AdobeSVGViewerExtensions/3.0/"
	 x="0px" y="0px" width="185px" height="77px" viewBox="-0.066 -0.742 185 77" enable-background="new -0.066 -0.742 185 77"
	 xml:space="preserve">
<defs>
</defs>
<path fill="#F47D30" d="M180.293,31.487c-1.049-0.001-2.123-0.383-2.732-0.7c-12.402-6.459-26.475-10.277-40.139-10.277
	c-1.713,0-2.982,0.068-4.578,0.229c2.58,4.096,7.02,10.057,10.061,13.71c0.793,0.949,1.025,1.521,1.025,2.435
	c0,1.592-1.676,3.135-3.457,3.135c-1.191,0-1.904-0.469-3.004-1.764c-3.705-4.347-9.268-12.051-11.904-16.422
	c-12.969,2.293-27.428,9.953-35.971,16.719c-0.977,0.783-1.656,1.104-2.635,1.104c-1.816,0-3.395-1.563-3.395-3.35
	c0-1.032,0.381-1.81,1.715-2.923c13.039-10.852,33.291-19.424,50.49-19.424c6.818,0,13.395,0.945,19.754,2.502
	c3.863,0.943,9.59,2.862,14.469,4.99c-12.789-7.727-28.818-14.787-38.953-14.787c-2.586,0-4.168,0.866-4.168,2.607
	c0,1.025,0.572,2.398,1.426,3.777c-2.029,0.205-4.701,0.617-6.723,1.158c-1.057-1.936-1.791-4.004-1.791-6.223
	c0-4.943,3.219-7.984,9.705-7.984c14.691,0,39.381,13.693,51.701,23.696c1.41,1.146,2.799,2.566,2.799,4.231
	C183.988,29.574,182.561,31.486,180.293,31.487"/>
<path fill="#555658" d="M20.637,60.619c0-0.881,0.533-1.428,1.354-1.428s1.33,0.547,1.33,1.428v1.486
	c0.717-1.465,2.301-2.914,3.729-2.914c0.918,0,1.363,0.539,1.363,1.254c0,0.697-0.381,1.223-1.563,1.549
	c-2.449,0.683-3.523,2.053-3.523,4.682v7.607c0,0.881-0.516,1.429-1.336,1.429s-1.354-0.548-1.354-1.429V60.619z"/>
<path fill="#555658" d="M80.891,60.619c0-0.881,0.531-1.428,1.354-1.428c0.818,0,1.332,0.547,1.332,1.428v1.486
	c0.713-1.465,2.297-2.914,3.727-2.914c0.918,0,1.365,0.539,1.365,1.254c0,0.697-0.385,1.223-1.564,1.549
	c-2.451,0.683-3.523,2.053-3.523,4.682v7.607c0,0.881-0.518,1.429-1.336,1.429c-0.822,0-1.354-0.548-1.354-1.429V60.619z"/>
<path fill="#555658" d="M36.068,59.191c2.627,0,4.314,1.055,4.314,2.002c0,0.568-0.422,1.135-1.061,1.135
	c-0.984,0-1.447-0.793-3.254-0.793c-3.051,0-4.617,2.729-4.617,5.917c0,3.455,1.762,5.918,4.617,5.918
	c1.988,0,2.424-0.822,3.359-0.822c0.609,0,0.975,0.411,0.975,1.04c0,0.608-0.502,1.104-1.408,1.522
	c-0.791,0.364-1.838,0.602-2.926,0.602c-4.572,0-7.318-3.434-7.318-8.26C28.75,62.726,31.52,59.191,36.068,59.191"/>
<path fill="#555658" d="M44.314,68.484c0.051,2.643,1.764,4.885,4.771,4.885c3.16,0,3.906-1.769,5.047-1.769
	c0.639,0,1.088,0.433,1.088,1.111c0,1.306-2.883,3-6.111,3c-2.416,0-4.035-0.767-5.24-1.991c-1.535-1.557-2.254-3.855-2.254-6.268
	c0-4.414,2.734-8.263,7.258-8.263c4.209,0,6.936,3.716,6.936,7.866c0,0.941-0.381,1.428-1.486,1.428H44.314z M53.121,66.479
	c0-2.308-1.314-4.944-4.26-4.944c-2.895,0-4.445,2.271-4.547,4.944H53.121z"/>
<path fill="#555658" d="M61.318,74.284c0,0.88-0.521,1.427-1.342,1.427s-1.348-0.547-1.348-1.427V55.152
	c0-0.88,0.527-1.428,1.348-1.428s1.342,0.548,1.342,1.428V74.284z"/>
<path fill="#555658" d="M71.102,75.716c-4.277,0-7.117-3.407-7.117-8.264c0-4.859,2.84-8.266,7.117-8.266
	c4.271,0,7.117,3.406,7.117,8.266C78.219,72.309,75.373,75.716,71.102,75.716 M71.102,73.369c2.617,0,4.414-2.285,4.414-5.916
	c0-3.635-1.797-5.918-4.414-5.918c-2.621,0-4.418,2.283-4.418,5.918C66.684,71.083,68.48,73.369,71.102,73.369"/>
<path fill="#555658" d="M107.32,60.306c-1.498,5.15-3.959,13.615-4.16,14.313c-0.227,0.77-0.695,1.093-1.428,1.093
	c-0.736,0-1.191-0.272-1.432-1.093c-0.207-0.725-2.789-9.596-4.268-14.693c-0.25-0.841-0.477-1.835-0.648-2.677
	c-0.102,0.823-0.234,1.786-0.377,2.686c-0.768,4.816-1.959,12.324-2.289,14.443c-0.146,0.933-0.621,1.334-1.402,1.334
	c-0.73,0-1.199-0.493-1.199-1.275c0-0.303,0.063-0.698,0.15-1.215c0,0,2.697-16.221,2.912-17.461
	c0.23-1.326,0.918-2.035,2.035-2.035c0.998,0,1.785,0.585,2.102,1.688c0.195,0.686,2.369,8.305,3.75,13.121
	c0.256,0.889,0.51,1.936,0.707,2.881c0.182-0.928,0.422-1.926,0.67-2.795c1.377-4.811,3.594-12.52,3.789-13.207
	c0.316-1.104,1.02-1.688,2.016-1.688c1.049,0,1.818,0.687,2.033,2.035c0.199,1.243,2.914,17.461,2.914,17.461
	c0.088,0.517,0.146,0.912,0.146,1.215c0,0.782-0.467,1.275-1.197,1.275c-0.781,0-1.258-0.401-1.4-1.334
	c-0.322-2.06-1.455-9.205-2.223-14.026c-0.156-0.984-0.305-2.101-0.424-3.123C107.9,58.121,107.643,59.216,107.32,60.306"/>
<path fill="#555658" d="M118.072,54.455c0.91,0,1.641,0.729,1.641,1.64c0,0.911-0.73,1.64-1.641,1.64s-1.641-0.729-1.641-1.64
	C116.432,55.184,117.162,54.455,118.072,54.455 M119.418,60.619c0-0.881-0.525-1.428-1.346-1.428s-1.342,0.547-1.342,1.428v13.664
	c0,0.881,0.521,1.429,1.342,1.429s1.346-0.548,1.346-1.429V60.619z"/>
<path fill="#555658" d="M124.094,55.882c0-0.881,0.521-1.428,1.34-1.428c0.822,0,1.35,0.547,1.35,1.428v3.491h1.094
	c0.879,0,1.336,0.431,1.336,1.16s-0.457,1.165-1.336,1.165h-1.094v12.585c0,0.88-0.527,1.428-1.35,1.428
	c-0.818,0-1.34-0.548-1.34-1.428V61.699h-0.977c-0.877,0-1.334-0.436-1.334-1.165s0.457-1.16,1.334-1.16h0.977V55.882z"/>
<path fill="#555658" d="M132.568,55.882c0-0.881,0.525-1.428,1.348-1.428c0.82,0,1.342,0.547,1.342,1.428v3.491h1.092
	c0.885,0,1.336,0.431,1.336,1.16s-0.451,1.165-1.336,1.165h-1.092v12.585c0,0.88-0.521,1.428-1.342,1.428
	c-0.822,0-1.348-0.548-1.348-1.428V61.699h-0.98c-0.879,0-1.336-0.436-1.336-1.165s0.457-1.16,1.336-1.16h0.98V55.882z"/>
<path fill="#555658" d="M17.75,73.251c-0.563-1.508-5.813-15.619-6.629-17.797c-0.412-1.093-1.039-1.729-2.078-1.729
	c-1.061,0-1.625,0.638-2.039,1.729c-0.373,0.979-6.088,16.293-6.658,17.797C0.096,73.912,0,74.267,0,74.553
	c0,0.673,0.578,1.157,1.277,1.157c0.721,0,1.135-0.373,1.361-1.002c0.137-0.377,0.879-2.463,1.826-5.119h9.158
	c0.895,2.508,1.615,4.523,1.828,5.119c0.205,0.566,0.578,1.002,1.307,1.002c0.699,0,1.355-0.426,1.355-1.125
	C18.113,74.278,18.039,74.035,17.75,73.251 M5.314,67.214c1.115-3.121,2.334-6.538,3.146-8.822c0.229-0.637,0.43-1.24,0.584-1.744
	c0.17,0.543,0.379,1.165,0.582,1.739c0.816,2.289,2.033,5.698,3.146,8.827H5.314z"/>
<path fill="#555658" d="M159.641,74.284c0,0.88-0.529,1.427-1.35,1.427c-0.818,0-1.344-0.547-1.344-1.427V55.152
	c0-0.88,0.525-1.428,1.344-1.428c0.82,0,1.35,0.548,1.35,1.428V74.284z"/>
<path fill="#555658" d="M151.807,59.191c-0.82,0-1.34,0.547-1.34,1.428v1.207c-0.992-1.631-2.609-2.639-4.602-2.639
	c-4.094,0-6.908,3.406-6.908,8.266c0,4.856,2.814,8.264,6.908,8.264c1.992,0,3.609-1.009,4.602-2.643v1.211
	c0,0.879,0.52,1.427,1.34,1.427c0.822,0,1.346-0.548,1.346-1.427V60.619C153.152,59.738,152.629,59.191,151.807,59.191
	 M146.074,73.373c-2.617,0-4.414-2.289-4.414-5.92c0-3.635,1.797-5.924,4.414-5.924c2.621,0,4.416,2.289,4.416,5.924
	C150.49,71.083,148.695,73.373,146.074,73.373"/>
</svg>
