<?xml version="1.0" encoding="UTF-8"?>
<svg xmlns="http://www.w3.org/2000/svg" xmlns:xlink="http://www.w3.org/1999/xlink" width="212.71pt" height="87.81pt" viewBox="0 0 212.71 87.81" version="1.1">
<g id="surface1">
<path style=" stroke:none;fill-rule:nonzero;fill:rgb(80.000305%,80.000305%,80.000305%);fill-opacity:1;" d="M 145.964844 30.457031 L 172.878906 33.824219 L 173.105469 59.339844 L 186.253906 37.335938 L 207.878906 45.878906 L 196.234375 27.742188 L 212.714844 7.339844 L 186.253906 16.476562 L 169.621094 0 L 169.601562 22.726562 L 145.964844 30.457031 "/>
<path style=" stroke:none;fill-rule:nonzero;fill:rgb(0%,0%,0%);fill-opacity:1;" d="M 0 37.933594 L 44.875 37.933594 L 44.875 48.683594 L 18.25 48.683594 L 18.25 57.308594 L 41 57.308594 L 41 67.433594 L 18.25 67.433594 L 18.25 87.808594 L 0 87.808594 L 0 37.933594 "/>
<path style=" stroke:none;fill-rule:nonzero;fill:rgb(0%,0%,0%);fill-opacity:1;" d="M 64.660156 49.183594 L 64.660156 76.433594 L 69.097656 76.433594 C 72.878906 76.433594 75.570312 76.078125 77.171875 75.363281 C 78.769531 74.648438 80.019531 73.402344 80.925781 71.621094 C 81.832031 69.839844 82.285156 66.953125 82.285156 62.960938 C 82.285156 57.679688 81.273438 54.0625 79.25 52.109375 C 77.222656 50.160156 73.867188 49.183594 69.175781 49.183594 Z M 46.535156 37.933594 L 73.476562 37.933594 C 78.785156 37.933594 83.074219 38.546875 86.34375 39.773438 C 89.613281 40.996094 92.316406 42.753906 94.449219 45.046875 C 96.585938 47.335938 98.132812 50 99.09375 53.039062 C 100.054688 56.078125 100.535156 59.300781 100.535156 62.703125 C 100.535156 68.03125 99.820312 72.164062 98.394531 75.101562 C 96.964844 78.039062 94.984375 80.5 92.449219 82.484375 C 89.914062 84.46875 87.191406 85.792969 84.285156 86.449219 C 80.308594 87.355469 76.703125 87.808594 73.476562 87.808594 L 46.535156 87.808594 L 46.535156 37.933594 "/>
<path style=" stroke:none;fill-rule:nonzero;fill:rgb(0%,0%,0%);fill-opacity:1;" d="M 101.535156 37.933594 L 125.503906 37.933594 L 134.574219 68.261719 L 143.683594 37.933594 L 167.535156 37.933594 L 167.535156 87.808594 L 152.660156 87.808594 L 152.660156 49.734375 L 141.226562 87.808594 L 127.804688 87.808594 L 116.410156 49.734375 L 116.410156 87.808594 L 101.535156 87.808594 L 101.535156 37.933594 "/>
</g>
</svg>
