<svg version="1.1" xmlns="http://www.w3.org/2000/svg" xmlns:xlink="http://www.w3.org/1999/xlink" x="0px" y="0px"
	 viewBox="0 0 347.7 104.4" style="enable-background:new 0 0 347.7 104.4;" xml:space="preserve">
<style type="text/css">
	.st0{fill:#333333;}
	.st1{clip-path:url(#SVGID_2_);}
	.st2{clip-path:url(#SVGID_4_);}
	.st3{clip-path:url(#SVGID_6_);fill:#222222;}
	.st4{clip-path:url(#SVGID_6_);fill:#642D10;}
	.st5{opacity:0.6;clip-path:url(#SVGID_6_);}
	.st6{clip-path:url(#SVGID_8_);fill:#431F10;}
	.st7{clip-path:url(#SVGID_6_);fill:#629999;}
	.st8{clip-path:url(#SVGID_6_);fill:#FFFFFF;}
	.st9{opacity:0.2;clip-path:url(#SVGID_6_);}
	.st10{clip-path:url(#SVGID_10_);fill:#FFFFFF;}
	.st11{clip-path:url(#SVGID_6_);fill:#666766;}
	.st12{clip-path:url(#SVGID_6_);fill:#7C5C3F;}
	.st13{clip-path:url(#SVGID_12_);fill:#FFFFFF;}
	.st14{clip-path:url(#SVGID_6_);fill:#232323;}
	.st15{clip-path:url(#SVGID_14_);fill:#FFFFFF;}
</style>
<g>
	<path class="st0" d="M152.8,56.4c-4.4,9.9-10.6,15.8-18.7,17.7c-1,0.2-1.9,0.3-2.9,0.3c-4.3,0-8.6-2.3-12.9-6.9
		c-2.9-3.1-4.4-7.2-4.4-12.2c0-5.5,1.6-11.5,4.9-17.8c1.4-2.7,3.1-5,5.2-6.9c2.3-2.3,4.5-3.5,6.6-3.5c1.2,0,2.3,0.4,3.4,1.3
		c1,0.9,3.8,2.1,8.4,3.6c3.6,1.2,6.1,3.2,7.6,6c2.6,5,3.9,9.3,3.9,12.9C153.9,53,153.6,54.8,152.8,56.4z M143.9,49.5
		c-0.5-5.4-2-8.7-4.4-9.7c-0.4-0.1-0.7-0.2-1-0.2c-0.9,0-2,0.7-3.4,2.2c-1.5,1.7-2.7,2.7-3.5,3c-0.5,0.2-1.3,0-2.2-0.7
		c-1-0.7-1.6-1-1.9-1c-0.2,0-0.4,0.1-0.6,0.2c-2.6,2.2-3.9,5.7-3.9,10.4c0,3.2,0.7,5.9,2.2,8.2c2.1,3.1,3.8,4.6,5.3,4.6
		c3.3,0,6.5-2.1,9.5-6.2C143,56.5,144.2,52.9,143.9,49.5z"/>
	<path class="st0" d="M196.3,31.9c-1,4-3.4,7.7-7.4,11c-3.8,2.7-7.6,5.3-11.4,8c0.2,1.1,1,2,2.3,2.5c1.3,0.6,2.6,1.1,3.8,1.6
		c6.2,4,9.3,8.8,9.3,14.3c0,4.3-1.5,8.2-4.4,11.8c-2.2,2.8-5.6,5.5-10,8.2c-3.6,2.1-7.2,4.2-10.8,6.3c-0.9,0.5-1.9,0.8-2.9,0.8
		c-2.5,0-4.2-1-5.2-3c0.1-6.3,0.3-12.5,0.4-18.7c0.1-7.5,0.6-13.6,1.2-18.5c-1.6-1-2.4-2.2-2.4-3.6c0-0.7,0.3-1.3,0.8-1.8
		c0.6-0.6,1.3-1.2,2.3-1.8c0.9-11.3,1.1-21.8,0.6-31.4c-3.5-0.7-5.8-2.2-6.9-4.7c-0.1-0.3,0.1-0.7,0.4-1.3c0.3-0.6,0.5-1.1,0.5-1.5
		c1.7-1.3,3.6-1.9,5.7-1.9c1,0,2.2,0.2,3.8,0.4c2.2,0.4,3.7,0.6,4.4,0.7c3.6,0.4,7.2,1.6,10.8,3.4c8.1,4.2,12.8,8.3,14.2,12.2
		C196.5,27.6,196.7,30,196.3,31.9z M182.4,70.2c0.1-0.8,0.2-1.6,0.2-2.4c0-2.2-0.7-4.2-2.1-5.9c-3.8-1.9-6.2-2.8-7.3-2.8
		c-0.6,0-1.2,0.1-1.7,0.3c0.1,0.7,0.1,1.6,0.1,2.5c0,1.6-0.2,4-0.6,7.2c-0.4,3.2-0.6,5.7-0.6,7.3c0,2.4,0.3,4.6,0.9,6.5
		c0.9-1,2.3-2.1,4.2-3.3c1.9-1.2,3.2-2.2,4-3.1C180.8,75,181.8,72.9,182.4,70.2z M185.8,26.3c-0.4-2.8-2.6-4.9-6.7-6.4
		c-0.6-0.2-1.5-0.7-2.8-1.5c-0.9-0.6-1.6-0.9-2.2-0.9c-0.3,0-0.6,0.1-1,0.2c-0.1,1.3-0.1,2.6-0.1,4c0,1.9,0.1,5.2,0.4,9.9
		c0.2,4.3,0.3,7.6,0.2,10c0.5,0,1.3-0.4,2.4-1.2c1-0.8,1.6-1.2,1.8-1.3c2.2-1,4.2-2.8,5.9-5.3C185.3,31.5,186,28.9,185.8,26.3z"/>
	<path class="st0" d="M213.5,24c0.1,2.2,0.2,4.4,0.2,6.7c0,5.1-0.5,12.7-1.6,23c-1,10.2-1.6,18-1.6,23.2c0,1.9,0,3.8,0.1,5.7
		c-0.7,2.1-2.1,3.1-4.4,3c-3.2-0.2-5-1.5-5.3-4.1c-0.3-2.6-0.4-5.4-0.4-8.3c0-5.1,0.6-12.7,1.8-22.7c1.2-10.1,1.8-17.6,1.8-22.6
		c0-1.9-0.1-3.8-0.2-5.7c0.7-1.4,2-2.1,3.8-2.1c1.4,0,2.8,0.4,4.3,1.2c0.3-0.2,0.5-0.3,0.7-0.3c0.2,0,0.3,0.4,0.3,1.1
		c-0.1,0.9-0.1,1.4,0,1.6C213.3,23.7,213.4,23.9,213.5,24z"/>
	<path class="st0" d="M258.3,24.6c-2.8,1.1-6.8,2.4-12.2,3.9c-5.4,1.5-9.4,2.8-12.2,3.9c-0.7,1.9-1.2,6.3-1.5,13
		c1.2,0.4,2.6,0.7,4.1,0.7c1.1,0,2.9-0.2,5.3-0.6c2.4-0.4,4.1-0.6,5.3-0.6c2.1,0,3.9,0.4,5.4,1.3c1,1.5,1.6,2.5,1.6,2.9
		c0,0.5-0.3,0.9-0.8,1.2c-0.2,0.1-0.7,0.6-1.6,1.6c-0.6,0.7-1.3,1-2.2,0.9c-1.6,0.4-4.4,0.6-8.6,0.7c-3.5,0.1-6.3,0.5-8.4,1.3
		c-1.4,5.5-2.1,9.9-2.1,13.1c0,2.2,0.3,3.9,0.9,5.2c3.5,2.5,9.6,3.5,18.3,3.1c0.6,0,1.2-0.3,1.9-0.8c0.7-0.6,1.2-0.8,1.7-0.8
		c2.1-0.4,3.5,1.1,4.1,4.7c0.2,1.2,0,2.3-0.6,3.3c-0.6,1-1.6,1.5-2.7,1.6c-9,0.3-16.9-0.4-23.5-2.1c-2.1-0.5-4-1.7-5.7-3.5
		c-1.7-1.8-2.7-3.8-2.9-6c-0.7-6.5-0.7-12.3,0-17.5c-2.1-1.4-3-2.8-2.8-4.1c0.1-0.7,0.7-1.3,1.7-1.8c1.1-0.6,1.7-1.1,1.8-1.7
		c0.1-0.6,0.4-4.1,0.9-10.6c-4.2-0.8-6.2-2.4-6.2-4.7c0.1-2.2,1.4-3.9,3.9-5.2c2.4-1,4.8-1.9,7.2-2.9c2.8-1.4,6.3-2.7,10.5-3.8
		c3.6-1,7.2-1.9,10.9-2.8c0.4-0.1,0.8-0.1,1.3-0.1c2,0,4.4,0.8,7.1,2.4c0.1,0.3,0.3,0.9,0.6,1.7c0.3,0.8,0.4,1.4,0.4,1.8
		C259.1,23.8,258.8,24.3,258.3,24.6z"/>
	<path class="st0" d="M280.3,70.8c0.7,2.7,0.5,4.5-0.4,5.4c-0.9,0.9-2.3,1.3-4.1,1.2c-1.5-0.1-2.9-0.7-4.3-2c-1.3-1.3-2-2.6-2-4
		c0-0.9,0.4-1.7,1.1-2.5c0.7-0.8,1.5-1.1,2.4-1.1c1.4,0.1,2.8,0.2,4.3,0.3C278.9,68.5,279.9,69.4,280.3,70.8z"/>
	<path class="st0" d="M330.8,75.3c0.4,1.2,0.7,2.2,0.7,3.1c0,1.5-0.6,2.8-1.9,3.9c-1.3,1.1-2.1,1.6-2.6,1.6c-3.7-0.7-6-3.6-6.9-8.8
		c-1-5.7-2.3-10.4-3.7-14.2c-2.5,0.2-5.1,0.4-7.6,0.7c-2.9,0.4-5.2,1.3-6.8,2.7c-0.8,2.3-1.9,6.4-3.2,12.3
		c-1.3,5.4-2.5,9.6-3.7,12.4c-0.6,1.3-1.9,1.7-3.8,1.1c-2.5-0.8-3.8-1.9-3.9-3.4c-0.2-2.8,0.6-6.6,2.5-11.4
		c2.2-5.4,3.5-9.3,3.7-11.6c0.1-0.7-0.4-1.4-1.5-2.2c-1-0.8-1.6-1.5-1.6-1.9c0-0.4,0.2-0.8,0.5-1.2c0.3-0.4,1.1-0.7,2.4-1
		c1.2-0.3,1.9-0.7,2.1-1.2c1.3-3.7,3.5-10.7,6.4-20.8c2.5-8.8,4.7-15.6,6.6-20.3c0.4-1,1.4-1.6,2.8-1.6c1,0,2,0.3,2.8,1
		c2.1,1.8,3.4,4.5,4,8.1c0.4,3.1,0.9,6.1,1.2,9.2C322.9,49.3,326.8,63.8,330.8,75.3z M314.4,53.9c-0.2-2.8-0.7-5.9-1.5-9.3
		c-0.7-3-1.5-6-2.1-9c-2.2,6.2-4.2,12.4-5.8,18.6C306.2,54,309.4,53.9,314.4,53.9z"/>
	<path class="st0" d="M347.5,24c0.1,2.2,0.2,4.4,0.2,6.7c0,5.1-0.5,12.7-1.6,23c-1,10.2-1.6,18-1.6,23.2c0,1.9,0,3.8,0.1,5.7
		c-0.7,2.1-2.1,3.1-4.4,3c-3.2-0.2-5-1.5-5.3-4.1c-0.3-2.6-0.4-5.4-0.4-8.3c0-5.1,0.6-12.7,1.8-22.7c1.2-10.1,1.8-17.6,1.8-22.6
		c0-1.9-0.1-3.8-0.2-5.7c0.7-1.4,2-2.1,3.8-2.1c1.4,0,2.8,0.4,4.3,1.2c0.3-0.2,0.5-0.3,0.7-0.3c0.2,0,0.3,0.4,0.3,1.1
		c-0.1,0.9-0.1,1.4,0,1.6C347.2,23.7,347.3,23.9,347.5,24z"/>
</g>
<g>
	<g>
		<defs>
			<rect id="SVGID_1_" x="0" y="0" width="106.4" height="104.4"/>
		</defs>
		<clipPath id="SVGID_2_">
			<use xlink:href="#SVGID_1_"  style="overflow:visible;"/>
		</clipPath>
		<g class="st1">
			<defs>
				<rect id="SVGID_3_" x="0" y="0" width="106.4" height="104.4"/>
			</defs>
			<clipPath id="SVGID_4_">
				<use xlink:href="#SVGID_3_"  style="overflow:visible;"/>
			</clipPath>
			<g class="st2">
				<defs>
					<rect id="SVGID_5_" x="0" y="0" width="106.4" height="104.4"/>
				</defs>
				<clipPath id="SVGID_6_">
					<use xlink:href="#SVGID_5_"  style="overflow:visible;"/>
				</clipPath>
				<path class="st3" d="M26.5,75.5c0,0,6.2,3.5,26.5,3.5c0,0,14.1,0.7,28.6-3.3c0,0-2.4,4-13.6,6c-3.6,0.6-19.2,1.5-25.7,0.5
					C36.9,81.3,30.8,79.5,26.5,75.5"/>
				<path class="st4" d="M92.6,48.1c0,0-4.6-6.2-6.9-16.4c-0.4-1-2.6-10.7-6.3-15.1c-0.2-0.3,3.5-4.3,3.7-4.6c2-3.1-9.7-8.3-9.9-5.6
					c-0.1,0-0.6,7.2-1.5,7.1c-2.4-0.4-4.2-1.5-8.8-2c-0.7-0.1,1.2,0.1,0.6,0.1c-0.2,0-1.8-7.9-2.6-6.9c-0.8,1.1-1.5,3.8-2,3.5
					c-2.1-1.1-1.8-8.9-2.6-7.5c-0.7,1.3-3,6.6-4.7,7.2c-0.5,0.2-0.6-1.8-0.3-2.7c0.4-1.1-4.5,3.7-5.2,4.3c-0.9,0.8-3.4,1.9-3.5,1.9
					c-3.5,0.4-4.4,0.9-7.4,2c-0.5,0.1-0.8-6.4-2.6-7.2c-1.8-0.8-9.5,2.9-9.8,6c-0.2,1.9,5.4,5.8,4.7,6.7c-2.3,3.2-5.3,9.8-6.8,14.1
					C18,41,12.9,46.3,11,48.1c0,0-3.8,3.5-6,8.4c-8,17.6-1,5.1-1,6.4c0,0-0.3,1.7-0.8,3.9c-0.9,4.7-2.3,12.1-2.4,12.8
					c-0.1,1.6,2.2-8.7,6.2-2.9c0.4,0.6,2,3,2.1,3.3c4.9,7,24.7,18.5,37.8,22.8c1.2,0.4,4.3,0.8,7.2,0.8c2.7,0,5.4-0.4,6.7-0.7
					c8.6-2.1,19.7-7.3,28.9-13.6c4-2.8,7.2-4.3,9.2-9.2c0.2-0.6,0.5-1.2,0.7-1.8c0.1-0.4,0.2-0.8,0.3-1.2c0.6-2.3,2.6,4.1,2.7,3.6
					c0.7-2.4,0.9-7.3-0.2-12.9c-0.5-2.4,8.7,7.7-2.2-7.6C97.8,56.5,116.2,72.1,92.6,48.1"/>
				<g class="st5">
					<g>
						<defs>
							<rect id="SVGID_7_" x="0.9" y="6.1" width="102" height="97.5"/>
						</defs>
						<clipPath id="SVGID_8_">
							<use xlink:href="#SVGID_7_"  style="overflow:visible;"/>
						</clipPath>
						<path class="st6" d="M69.3,85.7c-16.9,18.6-31,0.4-31,0.4c-15.3-15.9,1-35.6,1-35.6L37.7,49c-5.5-1.1,1-8.7,1-8.7
							c-2.2-0.7-3.9-5.6,1.9-7.1c0.4-0.1,1.2-0.2,1-0.6c-0.7-2.1-4.5-3.5-4-5.4c0.6-2.4,6.3-7.7,9-9.7c0.5-0.4-4.2,0.1-5.9,0.5
							c-2.3,0.5,2.1-6.3,2.1-6.3c-3.6,0.7-3,0.5-7.5,2c0,0-0.7-2.8-1.2-5.2c0-0.2-0.4-1.6-1.5-2c-0.8-0.3-2.6,0.4-4.1,1.1
							c-3.8,1.7-5.4,3.9-5.5,5c0,0.2-0.2,0.8,1.7,2.9c2.2,2.5,3.3,3.3,3,3.8c-0.7,1.1-3.7,5.9-6.1,12c-3.5,11.1-10.9,17.3-10.9,17.3
							c-2.6,2.8-4.5,5.7-5.8,8.3c-0.5,1-3.1,6.6-3.7,9.2c0,0.1,0,0.3,0.4-0.1c0.4-0.4,1-1.2,1.6-2.1c1-1.5,0.8-0.5,0.8-0.8
							C4.1,62.3,0,82.8,1,79.4c0.5-1.5,1.8-4.5,3.6-4.5c2.3,0.1,3.4,4,5.9,6.7c10.2,10.6,33,19.9,33,19.9c4.3,1.7,7.4,2.1,10.7,2.1
							c2.5,0,8.1-0.7,13-2.7c3.3-1.3,6.9-2.7,10.3-4.4c9.6-5,19.3-11.3,20.5-14.6c0.6-1.7,0.7-0.7,1.9-4.7c0.1-0.2,0.2-1,0.7-0.5
							c1,1,2.1,4,2.1,3.9C104.6,60.5,73.3,81.4,69.3,85.7"/>
					</g>
				</g>
				<path class="st7" d="M36.2,50.4c-1.7-1.7-1.4-10.8,4-10.8c3.7,0,5.5,8.4,3.5,10.7C42.4,51.9,37.9,52.1,36.2,50.4"/>
				<path class="st3" d="M43.5,46c0,2.1-1.6,3.8-3.6,3.8c-2,0-3.6-1.7-3.6-3.8c0-2.1,1.6-3.8,3.6-3.8C41.9,42.1,43.5,43.8,43.5,46"
					/>
				<path class="st8" d="M40.8,43c0,1.2-0.7,2.2-1.6,2.2c-0.9,0-1.7-0.9-1.8-2.1c0-1.2,0.7-2.2,1.6-2.2C40,40.9,40.7,41.8,40.8,43"
					/>
				<path class="st7" d="M63.1,50.4c-1.7-1.7-1.4-10.8,4-10.8c3.7,0,5.5,8.4,3.5,10.7C69.3,51.9,64.7,52.1,63.1,50.4"/>
				<path class="st3" d="M70.4,46c0,2.1-1.6,3.8-3.6,3.8c-2,0-3.6-1.7-3.6-3.8c0-2.1,1.6-3.8,3.6-3.8C68.8,42.1,70.4,43.8,70.4,46"
					/>
				<path class="st3" d="M33,77.6c0,0,4.8,9,20.4,9.1c0,0,10.9,1.9,22-8.6c0,0-3.2,18.3-21.1,18C54.5,96,40.3,100.2,33,77.6"/>
				<path class="st8" d="M53.4,75.5c0,0-0.3,11-10.1,9.6c0,0,3.4,16.9,4.7,17.2c4.1,1,7.1,1.3,12.6-0.3c0,0,2.8-9.8,2.9-16.6
					c0,0-2.4,0.7-4.6-0.9C56.4,82.6,53.4,79.8,53.4,75.5"/>
				<path class="st8" d="M67.7,43c0,1.2-0.7,2.2-1.6,2.2c-0.9,0-1.7-0.9-1.8-2.1c0-1.2,0.7-2.2,1.6-2.2C66.8,40.9,67.6,41.8,67.7,43
					"/>
				<g class="st9">
					<g>
						<defs>
							<rect id="SVGID_9_" x="32" y="56.5" width="44.3" height="29.3"/>
						</defs>
						<clipPath id="SVGID_10_">
							<use xlink:href="#SVGID_9_"  style="overflow:visible;"/>
						</clipPath>
						<path class="st10" d="M76.2,71.4c0,1.5,0.4,5.8-0.6,6.7c-2.3,1.9-3.2,3-6.5,4.9c-1.2,0.7-3.7,1.8-5.2,2.4
							c-1.4,0.5-3.7,0.8-5.1,0.2c-1.3-0.5-1.9-1.5-3.2-2.2c-0.7-0.4-1.4-0.9-2-0.9c-0.6,0-0.9,0.5-1.3,0.7c-0.8,0.5-1.7,1.5-2.6,1.8
							c-2,0.5-3.5,0.9-5.4,0.5c-2-0.5-3.4-1.1-5.1-2c-2.6-1.4-5.1-3.9-6.2-5.7c-0.8-1.3-1.1-5.2-1.1-6.9c0-8,9.7-14.2,21.5-14.2
							C65.2,56.5,76.2,63.4,76.2,71.4"/>
					</g>
				</g>
				<path class="st11" d="M53.6,78.3c-0.1-1.4-0.2-2.1-0.2-2.1c-0.3,1.7,0.1,13.2,0.7,18.7L53.6,78.3z"/>
				<path class="st12" d="M31.6,15.7c-0.6,0.3-0.9,0.8-1.4,0.6c-0.3-0.1-1.2-0.9-1.4-1.2l-3.2-2.9c-0.4-0.5,0.9-1.9,2.6-2.8
					c1.3-0.8,3.1-1.8,3.5-0.9l0.9,4.5c0.1,0.3,0.3,1.3,0.2,1.6C32.6,15.2,32.2,15.4,31.6,15.7"/>
				<g class="st9">
					<g>
						<defs>
							<rect id="SVGID_11_" x="27.9" y="9" width="4.3" height="6.2"/>
						</defs>
						<clipPath id="SVGID_12_">
							<use xlink:href="#SVGID_11_"  style="overflow:visible;"/>
						</clipPath>
						<path class="st13" d="M31.4,15.1c-0.4,0.2-0.1-0.8-0.5-1c-0.2-0.1-1.3,0.7-1.4,0.5l1.2-1.8l-2.8-0.6l2.3-1.1
							c0.9-1.3-2.5-0.7-1.4-1.3c0.9-0.5,2.2-1.3,2.5-0.7l0.8,4.1c0.1,0.2,0.2,0.9,0.1,1.1C32.1,14.8,31.8,14.9,31.4,15.1"/>
					</g>
				</g>
				<path class="st3" d="M36.4,68.4c0,0.1-0.1,0.2-0.2,0.2S36,68.5,36,68.4c0-0.1,0.1-0.2,0.2-0.2S36.4,68.3,36.4,68.4"/>
				<path class="st3" d="M36.6,73.2c0,0.1-0.1,0.2-0.2,0.2c-0.1,0-0.2-0.1-0.2-0.2c0-0.1,0.1-0.2,0.2-0.2
					C36.5,73,36.6,73.1,36.6,73.2"/>
				<path class="st3" d="M39.4,69.2c0,0.1-0.1,0.2-0.2,0.2c-0.1,0-0.2-0.1-0.2-0.2c0-0.1,0.1-0.2,0.2-0.2
					C39.3,69,39.4,69.1,39.4,69.2"/>
				<path class="st14" d="M67.4,71.2c0,0.1-0.1,0.2-0.2,0.2c-0.1,0-0.2-0.1-0.2-0.2c0-0.1,0.1-0.2,0.2-0.2
					C67.3,71,67.4,71.1,67.4,71.2"/>
				<path class="st3" d="M70.9,68.6c0,0.1-0.1,0.2-0.2,0.2c-0.1,0-0.2-0.1-0.2-0.2c0-0.1,0.1-0.2,0.2-0.2
					C70.8,68.4,70.9,68.5,70.9,68.6"/>
				<path class="st3" d="M71.1,73.4c0,0.1-0.1,0.2-0.2,0.2c-0.1,0-0.2-0.1-0.2-0.2c0-0.1,0.1-0.2,0.2-0.2
					C71,73.2,71.1,73.3,71.1,73.4"/>
				<path class="st3" d="M53.2,63.8c-8.2,0-7.3,2.3-7.3,2.3c0.3,1.5,2.2,8.9,7.2,9.4c0,0,5.2,0.4,7.3-9.4
					C60.6,66.1,61.3,63.8,53.2,63.8"/>
				<path class="st12" d="M75.5,15c0.6,0.3,0.9,0.7,1.5,0.5c0.3-0.1,1.2-1,1.4-1.3l3-3.1c0.4-0.5-1-1.8-2.7-2.6
					c-1.4-0.7-3.2-1.6-3.5-0.7l-0.6,4.6c-0.1,0.4-0.2,1.3-0.1,1.6C74.6,14.5,75,14.7,75.5,15"/>
				<g class="st9">
					<g>
						<defs>
							<rect id="SVGID_13_" x="74.7" y="8.2" width="4.3" height="6.2"/>
						</defs>
						<clipPath id="SVGID_14_">
							<use xlink:href="#SVGID_13_"  style="overflow:visible;"/>
						</clipPath>
						<path class="st15" d="M75.5,14.3c0.4,0.2,0.1-0.8,0.5-1c0.2-0.1,1.3,0.7,1.4,0.5l-1.2-1.8l2.8-0.6l-2.3-1.1
							C75.8,9,79.2,9.7,78.1,9c-0.9-0.5-2.2-1.3-2.5-0.7l-0.8,4.1c-0.1,0.2-0.2,0.9-0.1,1.1C74.8,13.9,75.1,14.1,75.5,14.3"/>
					</g>
				</g>
			</g>
		</g>
	</g>
</g>
</svg>
