<?xml version="1.0" encoding="UTF-8" standalone="no"?>
<!-- Created with Inkscape (http://www.inkscape.org/) -->
<svg
   xmlns:svg="http://www.w3.org/2000/svg"
   xmlns="http://www.w3.org/2000/svg"
   version="1.0"
   width="956.69287"
   height="261.49606"
   id="svg2">
  <defs
     id="defs4">
    <clipPath
       id="clipPath2721">
      <path
         d="M 0,1 L 0,0 L 1,0 L 1,1"
         id="path2723" />
    </clipPath>
    <clipPath
       id="clipPath2713">
      <path
         d="M -5.20333,-39.8479 L 1.20192,-39.8479 L 1.20192,2.20865 L -5.20333,2.20865 L -5.20333,-39.8479 z"
         id="path2715" />
    </clipPath>
  </defs>
  <g
     transform="translate(-333.11427,-46.81047)"
     id="layer1">
    <g
       transform="matrix(885.82677,0,0,-190.80425,368.54732,272.96063)"
       id="g2709"
       style="fill:#47237f;fill-opacity:1">
      <g
         clip-path="url(#clipPath2713)"
         id="g2711"
         style="fill:#47237f;fill-opacity:1">
        <g
           id="g2717"
           style="fill:#47237f;fill-opacity:1">
          <g
             clip-path="url(#clipPath2721)"
             id="g2719"
             style="fill:#47237f;fill-opacity:1">
            <path
               d="M 0.0689,0.8849 C 0.0689,0.9156 0.0656,0.9386 0.051,0.9386 C 0.0364,0.9386 0.0331,0.9156 0.0331,0.885 L 0.0331,0.8017 C 0.0331,0.7765 0.0349,0.7513 0.0401,0.7304 L 0.0897,0.5332 C 0.0968,0.5058 0.101,0.4718 0.101,0.4367 L 0.101,0.3118 C 0.101,0.2373 0.0821,0.1956 0.051,0.1957 C 0.0165,0.1957 0,0.2318 0,0.3118 L 0,0.4203 L 0.0312,0.4203 L 0.0312,0.3162 C 0.0312,0.2789 0.0373,0.257 0.051,0.257 C 0.0637,0.257 0.0699,0.2789 0.0699,0.3162 L 0.0699,0.4269 C 0.0699,0.4543 0.0675,0.4751 0.0609,0.5025 L 0.0151,0.6877 C 0.0066,0.7217 0.0019,0.748 0.0019,0.7885 L 0.0019,0.8839 C 0.0019,0.9617 0.0194,1 0.051,1 C 0.0859,1 0.1001,0.9617 0.1001,0.8893 L 0.1001,0.7885 L 0.0689,0.7885 L 0.0689,0.8849"
               id="path2725"
               style="fill:#47237f;fill-opacity:1;fill-rule:nonzero;stroke:none" />
            <path
               d="M 0.3744,0.8663 C 0.3744,0.9441 0.3872,1 0.4292,1 C 0.4712,1 0.4839,0.9441 0.4839,0.8663 L 0.4839,0.3293 C 0.4839,0.2515 0.4712,0.1956 0.4292,0.1956 C 0.3872,0.1956 0.3744,0.2515 0.3744,0.3293 L 0.3744,0.8663 z M 0.4056,0.3315 C 0.4056,0.2877 0.4093,0.257 0.4292,0.257 C 0.449,0.257 0.4528,0.2877 0.4528,0.3315 L 0.4528,0.8641 C 0.4528,0.9079 0.449,0.9386 0.4292,0.9386 C 0.4094,0.9386 0.4056,0.9079 0.4056,0.8641 L 0.4056,0.3315"
               id="path2727"
               style="fill:#47237f;fill-opacity:1;fill-rule:nonzero;stroke:none" />
            <path
               d="M 0.5012,0.9934 L 0.5507,0.9934 C 0.5909,0.9934 0.6027,0.9627 0.6027,0.8728 L 0.6027,0.6789 C 0.6027,0.589 0.5909,0.5583 0.5507,0.5583 L 0.5323,0.5583 L 0.5323,0.2022 L 0.5012,0.2022 L 0.5012,0.9934 z M 0.5474,0.6197 C 0.5616,0.6197 0.5715,0.6285 0.5715,0.669 L 0.5715,0.8827 C 0.5715,0.9233 0.5616,0.932 0.5474,0.932 L 0.5323,0.932 L 0.5323,0.6197 L 0.5474,0.6197"
               id="path2729"
               style="fill:#47237f;fill-opacity:1;fill-rule:nonzero;stroke:none" />
            <path
               d="M 0.6805,0.8849 C 0.6805,0.9156 0.6772,0.9386 0.6625,0.9386 C 0.6479,0.9386 0.6446,0.9156 0.6446,0.8849 L 0.6446,0.8016 C 0.6446,0.7764 0.6465,0.7512 0.6517,0.7304 L 0.7013,0.5331 C 0.7083,0.5057 0.7126,0.4718 0.7126,0.4367 L 0.7126,0.3118 C 0.7126,0.2372 0.6937,0.1956 0.6625,0.1956 C 0.6281,0.1956 0.6116,0.2318 0.6116,0.3118 L 0.6116,0.4203 L 0.6427,0.4203 L 0.6427,0.3161 C 0.6427,0.2789 0.6489,0.257 0.6625,0.257 C 0.6753,0.257 0.6814,0.2789 0.6814,0.3161 L 0.6814,0.4268 C 0.6814,0.4542 0.6791,0.475 0.6725,0.5024 L 0.6267,0.6876 C 0.6182,0.7216 0.6135,0.7479 0.6135,0.7885 L 0.6135,0.8838 C 0.6135,0.9616 0.6309,1 0.6625,1 C 0.6975,1 0.7116,0.9616 0.7116,0.8893 L 0.7116,0.7885 L 0.6805,0.7885 L 0.6805,0.8849"
               id="path2731"
               style="fill:#47237f;fill-opacity:1;fill-rule:nonzero;stroke:none" />
            <path
               d="M 0.9156,0.8849 C 0.9156,0.9156 0.9123,0.9386 0.8977,0.9386 C 0.883,0.9386 0.8797,0.9156 0.8797,0.8849 L 0.8797,0.8016 C 0.8797,0.7764 0.8816,0.7512 0.8868,0.7304 L 0.9364,0.5331 C 0.9434,0.5057 0.9477,0.4717 0.9477,0.4367 L 0.9477,0.3117 C 0.9477,0.2372 0.9288,0.1956 0.8976,0.1956 C 0.8632,0.1956 0.8467,0.2318 0.8467,0.3118 L 0.8467,0.4202 L 0.8778,0.4202 L 0.8778,0.3161 C 0.8778,0.2789 0.884,0.257 0.8976,0.257 C 0.9104,0.257 0.9165,0.2789 0.9165,0.3161 L 0.9165,0.4268 C 0.9165,0.4542 0.9142,0.475 0.9076,0.5024 L 0.8618,0.6876 C 0.8533,0.7216 0.8486,0.7479 0.8486,0.7884 L 0.8486,0.8838 C 0.8486,0.9616 0.866,1 0.8977,1 C 0.9326,0.9999 0.9467,0.9616 0.9467,0.8893 L 0.9467,0.7884 L 0.9156,0.7884 L 0.9156,0.8849"
               id="path2733"
               style="fill:#47237f;fill-opacity:1;fill-rule:nonzero;stroke:none" />
            <path
               d="M 0.2025,0.9934 L 0.2337,0.9934 L 0.1654,0 L 0.1342,0 L 0.2025,0.9934"
               id="path2735"
               style="fill:#47237f;fill-opacity:1;fill-rule:nonzero;stroke:none" />
            <path
               d="M 0.1482,0.3782 L 0.106,0.9934 L 0.1372,0.9934 L 0.1638,0.6055 L 0.1482,0.3782"
               id="path2737"
               style="fill:#47237f;fill-opacity:1;fill-rule:nonzero;stroke:none" />
            <path
               d="M 0.8138,0.9934 L 0.845,0.9934 L 0.7767,0 L 0.7455,0 L 0.8138,0.9934"
               id="path2739"
               style="fill:#47237f;fill-opacity:1;fill-rule:nonzero;stroke:none" />
            <path
               d="M 0.7596,0.3781 L 0.7174,0.9934 L 0.7486,0.9934 L 0.7752,0.6055 L 0.7596,0.3781"
               id="path2741"
               style="fill:#47237f;fill-opacity:1;fill-rule:nonzero;stroke:none" />
            <path
               d="M 0.3552,0.2022 L 0.3554,0.2022 L 0.3554,0.8727 C 0.3554,0.9625 0.3436,0.9932 0.3034,0.9932 L 0.2433,0.9932 L 0.2433,0.202 L 0.2745,0.202 L 0.2745,0.2022 L 0.2745,0.9319 L 0.3001,0.9319 C 0.3143,0.9319 0.3242,0.9231 0.3242,0.8825 L 0.3242,0.2022 L 0.3552,0.2022"
               id="path2743"
               style="fill:#47237f;fill-opacity:1;fill-rule:nonzero;stroke:none" />
            <path
               d="M 0.9598,0.8957 C 0.9598,0.9486 0.969,0.9876 0.9799,0.9876 C 0.9908,0.9876 1,0.9486 1,0.8957 C 1,0.8423 0.9908,0.8033 0.9799,0.8033 C 0.969,0.8033 0.9598,0.8423 0.9598,0.8957 z M 0.9799,0.8186 C 0.9889,0.8186 0.996,0.8513 0.996,0.8957 C 0.996,0.9393 0.9889,0.9722 0.9799,0.9722 C 0.9709,0.9722 0.9638,0.9393 0.9638,0.8957 C 0.9638,0.8513 0.9709,0.8186 0.9799,0.8186 z M 0.9757,0.8423 L 0.9723,0.8423 L 0.9723,0.9486 L 0.981,0.9486 C 0.9864,0.9486 0.9891,0.9393 0.9891,0.9183 C 0.9891,0.8993 0.9865,0.891 0.9831,0.8891 L 0.9897,0.8423 L 0.9858,0.8423 L 0.9797,0.8884 L 0.9757,0.8884 L 0.9757,0.8423 z M 0.9799,0.902 C 0.9828,0.902 0.9855,0.903 0.9855,0.9193 C 0.9855,0.9325 0.9829,0.9349 0.9805,0.9349 L 0.9757,0.9349 L 0.9757,0.902 L 0.9799,0.902"
               id="path2745"
               style="fill:#47237f;fill-opacity:1;fill-rule:nonzero;stroke:none" />
          </g>
        </g>
      </g>
    </g>
  </g>
</svg>
