<?xml version="1.0" encoding="utf-8"?>
<!-- Generator: Adobe Illustrator 23.0.3, SVG Export Plug-In . SVG Version: 6.00 Build 0)  -->
<svg version="1.1" id="Layer_1" xmlns="http://www.w3.org/2000/svg" xmlns:xlink="http://www.w3.org/1999/xlink" x="0px" y="0px"
	 viewBox="0 0 1000 384" style="enable-background:new 0 0 1000 384;" xml:space="preserve">
<style type="text/css">
	.st0{fill:#FFFFFF;stroke:#2D1300;stroke-width:3;stroke-miterlimit:10;}
	.st1{opacity:0.15;fill:#545454;enable-background:new    ;}
	.st2{fill:none;stroke:#000000;stroke-width:2;stroke-miterlimit:10;}
</style>
<rect x="166.5" y="42.1" class="st0" width="676.9" height="324.9"/>
<path class="st1" d="M166.5,259.6c0,0,192.2-217.5,435-217.5s-435,0-435,0V259.6z"/>
<path class="st2" d="M843.4,148.8c0,0,117.9,23.5,297.8-56"/>
<path class="st2" d="M843.4,160c0,0,160.7-25.3,248.9-99.5"/>
<path class="st2" d="M166.5,129.5c0,0-118.8,31.3-181.7-77.8"/>
<path class="st2" d="M166.5,162.4c0,0-130.1-30.3-181.7-144.7"/>
<polyline points="779.4,42.1 796.7,22.8 804.3,22.8 804.3,17.6 788.6,17.6 788.6,23 771.6,42.1 "/>
<polyline points="671.8,42.1 689.1,22.8 696.7,22.8 696.7,17.6 681,17.6 681,23 664,42.1 "/>
<polyline points="548.4,42.1 565.7,22.8 573.3,22.8 573.3,17.6 557.6,17.6 557.6,23 540.6,42.1 "/>
<polyline points="440.9,42.1 458.1,22.8 465.7,22.8 465.7,17.6 450,17.6 450,23 433,42.1 "/>
<polyline points="323.2,42.1 340.5,22.8 348.1,22.8 348.1,17.6 332.4,17.6 332.4,23 315.4,42.1 "/>
<polyline points="215.7,42.1 232.9,22.8 240.5,22.8 240.5,17.6 224.8,17.6 224.8,23 207.8,42.1 "/>
</svg>
