<?xml version="1.0" encoding="utf-8"?>
<!-- Generator: Adobe Illustrator 23.0.3, SVG Export Plug-In . SVG Version: 6.00 Build 0)  -->
<svg version="1.1" id="Layer_1" xmlns="http://www.w3.org/2000/svg" xmlns:xlink="http://www.w3.org/1999/xlink" x="0px" y="0px"
	 viewBox="0 0 1062 393.9" style="enable-background:new 0 0 1062 393.9;" xml:space="preserve">
<style type="text/css">
	.st0{fill:#FFFFFF;stroke:#2D1300;stroke-width:3;stroke-miterlimit:10;}
	.st1{opacity:0.15;fill:#545454;enable-background:new    ;}
	.st2{fill:none;stroke:#000000;stroke-width:2;stroke-miterlimit:10;}
</style>
<rect x="170.5" y="50.6" class="st0" width="676.9" height="324.9"/>
<path class="st1" d="M170.5,268.1c0,0,192.2-217.5,435-217.5s-435,0-435,0V268.1z"/>
<path class="st2" d="M847.4,157.3c0,0,117.9,23.5,297.8-56"/>
<path class="st2" d="M847.4,168.5c0,0,160.7-25.3,248.9-99.5"/>
<path class="st2" d="M170.5,138c0,0-118.8,31.3-181.7-77.8"/>
<path class="st2" d="M170.5,170.9c0,0-130.1-30.3-181.7-144.7"/>
<polyline points="783.4,50.6 800.7,31.3 808.3,31.3 808.3,26.1 792.6,26.1 792.6,31.5 775.6,50.6 "/>
<polyline points="675.8,50.6 693.1,31.3 700.7,31.3 700.7,26.1 685,26.1 685,31.5 668,50.6 "/>
<polyline points="552.4,50.6 569.7,31.3 577.3,31.3 577.3,26.1 561.6,26.1 561.6,31.5 544.6,50.6 "/>
<polyline points="444.9,50.6 462.1,31.3 469.7,31.3 469.7,26.1 454,26.1 454,31.5 437,50.6 "/>
<polyline points="327.2,50.6 344.5,31.3 352.1,31.3 352.1,26.1 336.4,26.1 336.4,31.5 319.4,50.6 "/>
<polyline points="219.7,50.6 236.9,31.3 244.5,31.3 244.5,26.1 228.8,26.1 228.8,31.5 211.8,50.6 "/>
<path class="st2" d="M847.4,295c0,0,186.5-37.7,292.3-234.8"/>
<path class="st2" d="M847.4,60.2c0,0,108.8,148.5,327.6,152.9"/>
<path class="st2" d="M170.5,336c0,0-191.2-21.4-235-122.9"/>
<path class="st2" d="M170.5,280.9c0,0-112.2,53.6-229.3,0"/>
</svg>
