<?xml version="1.0" encoding="utf-8"?>
<!-- Generator: Adobe Illustrator 23.0.3, SVG Export Plug-In . SVG Version: 6.00 Build 0)  -->
<svg version="1.1" id="Layer_1" xmlns="http://www.w3.org/2000/svg" xmlns:xlink="http://www.w3.org/1999/xlink" x="0px" y="0px"
	 viewBox="0 0 1000 384.9" style="enable-background:new 0 0 1000 384.9;" xml:space="preserve">
<style type="text/css">
	.st0{fill:#FFFFFF;stroke:#2D1300;stroke-width:3;stroke-miterlimit:10;}
	.st1{opacity:0.15;fill:#545454;enable-background:new    ;}
	.st2{fill:none;stroke:#000000;stroke-width:2;stroke-miterlimit:10;}
</style>
<rect x="166.5" y="41.1" class="st0" width="676.9" height="324.9"/>
<path class="st1" d="M843.4,41.1c0,0-677.8,0-435,0s435,217.5,435,217.5V41.1z"/>
<path class="st2" d="M843.4,147.8c0,0,117.9,23.5,297.8-56"/>
<path class="st2" d="M843.4,159c0,0,160.7-25.3,248.9-99.5"/>
<path class="st2" d="M166.5,128.5c0,0-118.8,31.3-181.7-77.8"/>
<path class="st2" d="M166.5,161.4c0,0-130.1-30.3-181.7-144.7"/>
<polyline points="240.5,41.1 223.5,22 223.5,16.6 207.8,16.6 207.8,21.8 215.4,21.8 232.7,41.1 "/>
<polyline points="348.1,41.1 331.1,22 331.1,16.6 315.4,16.6 315.4,21.8 323,21.8 340.3,41.1 "/>
<polyline points="471.5,41.1 454.5,22 454.5,16.6 438.8,16.6 438.8,21.8 446.4,21.8 463.7,41.1 "/>
<polyline points="579.1,41.1 562.1,22 562.1,16.6 546.4,16.6 546.4,21.8 554,21.8 571.2,41.1 "/>
<polyline points="696.7,41.1 679.7,22 679.7,16.6 664,16.6 664,21.8 671.6,21.8 688.9,41.1 "/>
<polyline points="804.3,41.1 787.3,22 787.3,16.6 771.6,16.6 771.6,21.8 779.2,21.8 796.4,41.1 "/>
<path class="st2" d="M843.4,285.5c0,0,186.5-37.7,292.3-234.8"/>
</svg>
