<svg xmlns="http://www.w3.org/2000/svg" viewBox="0 0 32.06 39.3"><defs><style>.cls-1{fill:#dd5a57;}.cls-2{fill:#e17472;}.cls-3{fill:#eaefed;}</style></defs><title>Astronaut 2</title><g id="Layer_2" data-name="Layer 2"><g id="Layer_1-2" data-name="Layer 1"><path class="cls-1" d="M20.37,13.73l-3.4,2a1.82,1.82,0,0,1-.91.24H3.51a1.86,1.86,0,0,1-1.3-.53L.59,13.79a1.84,1.84,0,0,1,0-2.59h0a1.84,1.84,0,0,1,2.59,0l.76.76a1.83,1.83,0,0,0,1.29.53h7.11A1.81,1.81,0,0,0,13.63,12L18,7.63a1.06,1.06,0,0,1,.75-.31S22.27,12.63,20.37,13.73Z"/><rect class="cls-1" x="10.68" y="6.98" width="13.8" height="20.7" rx="1.83" ry="1.83" transform="translate(35.17 34.65) rotate(-180)"/><path class="cls-1" d="M15.86,27.67a1.73,1.73,0,0,1,3.45,0v4.64l4.05,4a1.73,1.73,0,0,1,0,2.44h0a1.73,1.73,0,0,1-2.44,0l-4.49-4.49a1.58,1.58,0,0,1-.41-.76,1.63,1.63,0,0,1-.16-.7Z"/><path class="cls-2" d="M10.68,27.67a1.73,1.73,0,0,1,3.45,0v4.64l4.06,4a1.73,1.73,0,0,1,0,2.44h0a1.73,1.73,0,0,1-2.44,0l-4.49-4.49a1.69,1.69,0,0,1-.42-.76,1.63,1.63,0,0,1-.16-.7Z"/><circle class="cls-1" cx="12.41" cy="6.98" r="6.9"/><path class="cls-2" d="M5.51,7c0,4,4.19,7.64,6.9,6.89,1.86-.51,3.33-3.15,3.45-5.17,0-.23,0-.19,0-1.72a31.09,31.09,0,0,0,0-3.45A4.82,4.82,0,0,0,12.41.08C9.4-.57,5.51,3.08,5.51,7Z"/><circle class="cls-3" cx="9.68" cy="6.98" r="3.02"/><rect class="cls-2" x="10.68" y="12.15" width="3.45" height="17.25" rx="0.5" ry="0.5" transform="translate(24.82 41.55) rotate(-180)"/><rect class="cls-1" x="8.96" y="24.22" width="6.9" height="3.45" rx="1" ry="1" transform="translate(24.82 51.9) rotate(-180)"/><rect class="cls-2" x="1.37" y="10.08" width="1.72" height="5.17" rx="0.5" ry="0.5" transform="translate(-5.15 23.2) rotate(-135)"/><path class="cls-2" d="M18.71,15.35a.77.77,0,0,0,.77.76c.88,0,1.76,0,2.65,0q3.24,0,6.41,0a1.8,1.8,0,0,0,1.31-.53L31.47,14a1.84,1.84,0,0,0,0-2.59h0a1.84,1.84,0,0,0-2.59,0l-.76.76a1.84,1.84,0,0,1-1.29.54H18.71Z"/><rect class="cls-1" x="28.97" y="10.42" width="1.72" height="5.17" rx="0.5" ry="0.5" transform="translate(-0.46 24.9) rotate(-45)"/></g></g></svg>