<svg xmlns="http://www.w3.org/2000/svg" viewBox="0 0 24.58 39.54"><defs><style>.cls-1{fill:#fbeabd;}.cls-2{fill:#f8d67e;}.cls-3{fill:#eaefed;}</style></defs><title>Astronaut 1</title><g id="Layer_2" data-name="Layer 2"><g id="Layer_1-2" data-name="Layer 1"><rect class="cls-1" y="7.02" width="13.88" height="20.83" rx="1.83" ry="1.83"/><path class="cls-1" d="M8.68,27.84a1.74,1.74,0,0,0-3.47,0v4.67L1.13,36.58a1.74,1.74,0,0,0,0,2.46h0a1.74,1.74,0,0,0,2.45,0L8.1,34.52a1.69,1.69,0,0,0,.42-.76,1.68,1.68,0,0,0,.16-.71Z"/><path class="cls-2" d="M4.14,13.82l3.41,2a1.8,1.8,0,0,0,.93.25H21.1a1.85,1.85,0,0,0,1.31-.54L24,13.87a1.83,1.83,0,0,0,0-2.6h0a1.85,1.85,0,0,0-2.61,0l-.76.76a1.81,1.81,0,0,1-1.3.54H12.22A1.85,1.85,0,0,1,10.91,12L6.56,7.68a1.07,1.07,0,0,0-.76-.31S2.22,12.71,4.14,13.82Z"/><path class="cls-2" d="M13.88,27.84a1.74,1.74,0,0,0-3.47,0v4.67L6.33,36.58a1.76,1.76,0,0,0,0,2.46h0a1.76,1.76,0,0,0,2.46,0l4.52-4.52a2.92,2.92,0,0,0,.57-1.47Z"/><circle class="cls-1" cx="12.15" cy="7.02" r="6.94"/><path class="cls-2" d="M19.09,7c0,4.07-4.21,7.69-6.94,6.94-1.88-.51-3.35-3.18-3.47-5.21,0-.23,0-.19,0-1.73a28.36,28.36,0,0,1,0-3.47A4.86,4.86,0,0,1,12.15.08C15.18-.58,19.09,3.09,19.09,7Z"/><circle class="cls-3" cx="10.41" cy="5.28" r="3.04"/><rect class="cls-2" x="10.41" y="12.22" width="3.47" height="17.36" rx="0.5" ry="0.5"/><rect class="cls-1" x="8.68" y="24.37" width="6.94" height="3.47" rx="1" ry="1"/><path class="cls-1" d="M3.1,13.47l3.41,2a1.88,1.88,0,0,0,.93.25H20.06a1.89,1.89,0,0,0,1.31-.54L23,13.53a1.87,1.87,0,0,0,0-2.61h0a1.85,1.85,0,0,0-2.61,0l-.76.77a1.86,1.86,0,0,1-1.3.53H11.18a1.88,1.88,0,0,1-1.31-.53L5.52,7.33A1.07,1.07,0,0,0,4.76,7S1.18,12.36,3.1,13.47Z"/><rect class="cls-2" x="20.83" y="9.62" width="1.74" height="5.21" rx="0.5" ry="0.5" transform="translate(-2.29 18.92) rotate(-45)"/></g></g></svg>