<svg xmlns="http://www.w3.org/2000/svg" xmlns:xlink="http://www.w3.org/1999/xlink" viewBox="0 0 1389.88 1230.33"><defs><style>.cls-1{fill:#7da4cd;}.cls-2{fill:url(#linear-gradient);}.cls-3{fill:#fff;}.cls-4{fill:url(#linear-gradient-2);}.cls-5{fill:url(#linear-gradient-3);}.cls-6{fill:url(#linear-gradient-4);}.cls-7{fill:url(#radial-gradient);}.cls-8{fill:url(#radial-gradient-2);}.cls-9{fill:url(#linear-gradient-5);}.cls-10{fill:url(#radial-gradient-3);}.cls-11{fill:url(#radial-gradient-4);}.cls-12{fill:#2d5162;}.cls-13{fill:url(#linear-gradient-6);}.cls-14{fill:url(#linear-gradient-7);}.cls-15{fill:url(#linear-gradient-8);}.cls-16{fill:url(#linear-gradient-9);}.cls-17{fill:url(#linear-gradient-10);}.cls-18{opacity:0.35;fill:url(#linear-gradient-11);}.cls-19{fill:url(#linear-gradient-12);}.cls-20{fill:url(#linear-gradient-13);}.cls-21{fill:#263968;}.cls-22{fill:#cecece;}.cls-23{fill:#7a7a7a;}.cls-24{fill:url(#linear-gradient-14);}.cls-25{fill:#c4c4c4;stroke:#2e3192;stroke-width:5px;}.cls-25,.cls-31{stroke-miterlimit:10;}.cls-26{fill:lime;}.cls-27{fill:#ff0;}.cls-28{fill:red;}.cls-29{fill:#4d77de;}.cls-30{fill:url(#linear-gradient-15);}.cls-31{fill:none;stroke:#7da4cd;stroke-width:10px;}</style><linearGradient id="linear-gradient" x1="643.47" y1="385.4" x2="803.47" y2="385.4" gradientTransform="matrix(0.94, 0.33, -0.33, 0.94, 214.99, -173.54)" gradientUnits="userSpaceOnUse"><stop offset="0" stop-color="#1b84dd" stop-opacity="0"/><stop offset="0.67" stop-color="#1b84dd" stop-opacity="0.04"/><stop offset="0.82" stop-color="#1b84dd" stop-opacity="0.05"/><stop offset="0.88" stop-color="#1b84dd" stop-opacity="0.08"/><stop offset="0.92" stop-color="#1b84dd" stop-opacity="0.13"/><stop offset="0.95" stop-color="#1b84dd" stop-opacity="0.21"/><stop offset="0.98" stop-color="#1b84dd" stop-opacity="0.31"/><stop offset="1" stop-color="#1b84dd" stop-opacity="0.4"/></linearGradient><linearGradient id="linear-gradient-2" x1="223.23" y1="804.35" x2="171.78" y2="715.24" gradientTransform="matrix(-0.96, 0.27, -0.27, -0.96, 1027.1, 886.24)" xlink:href="#linear-gradient"/><linearGradient id="linear-gradient-3" x1="224.04" y1="804.92" x2="172.59" y2="715.81" gradientTransform="matrix(-0.96, 0.27, -0.27, -0.96, 1027.1, 886.24)" xlink:href="#linear-gradient"/><linearGradient id="linear-gradient-4" x1="787.07" y1="-40.89" x2="787.07" y2="98.07" gradientTransform="translate(160.93 85.97)" gradientUnits="userSpaceOnUse"><stop offset="0" stop-color="#1b84dd" stop-opacity="0"/><stop offset="0.55" stop-color="#1b84dd" stop-opacity="0.04"/><stop offset="1" stop-color="#1b84dd" stop-opacity="0.6"/></linearGradient><radialGradient id="radial-gradient" cx="924.12" cy="-348.26" r="15.75" gradientTransform="matrix(0.69, 0.24, -0.24, 0.69, 233.77, 107.6)" gradientUnits="userSpaceOnUse"><stop offset="0.44" stop-color="#26456b" stop-opacity="0.9"/><stop offset="1" stop-color="#263968"/></radialGradient><radialGradient id="radial-gradient-2" cx="924.12" cy="-282.26" r="15.75" xlink:href="#radial-gradient"/><linearGradient id="linear-gradient-5" x1="1203.96" y1="-40.89" x2="1203.96" y2="98.07" gradientTransform="translate(137.31 224.28)" xlink:href="#linear-gradient-4"/><radialGradient id="radial-gradient-3" cx="1494.12" cy="-348.26" r="15.75" xlink:href="#radial-gradient"/><radialGradient id="radial-gradient-4" cx="1494.12" cy="-282.26" r="15.75" xlink:href="#radial-gradient"/><linearGradient id="linear-gradient-6" x1="995.52" y1="-154.26" x2="995.52" y2="211.44" gradientTransform="matrix(0.94, 0.33, -0.33, 0.94, 214.99, -173.54)" gradientUnits="userSpaceOnUse"><stop offset="0.46" stop-color="#1b84dd" stop-opacity="0"/><stop offset="0.82" stop-color="#1b84dd" stop-opacity="0.04"/><stop offset="1" stop-color="#1b84dd" stop-opacity="0.5"/></linearGradient><linearGradient id="linear-gradient-7" x1="995.52" y1="-125.84" x2="995.52" y2="183.02" gradientTransform="matrix(0, 1, -1, 0, 1173.22, -811.8)" gradientUnits="userSpaceOnUse"><stop offset="0" stop-color="#263968" stop-opacity="0"/><stop offset="1" stop-color="#263968" stop-opacity="0.9"/></linearGradient><linearGradient id="linear-gradient-8" x1="995.52" y1="211.44" x2="995.52" y2="249.47" gradientTransform="translate(82.15 143.69)" gradientUnits="userSpaceOnUse"><stop offset="0" stop-color="#1b84dd" stop-opacity="0"/><stop offset="0.44" stop-color="#1b84dd" stop-opacity="0.04"/><stop offset="1" stop-color="#1b84dd" stop-opacity="0.5"/></linearGradient><linearGradient id="linear-gradient-9" x1="995.52" y1="249.47" x2="995.52" y2="288.96" gradientTransform="translate(69.28 141.5)" gradientUnits="userSpaceOnUse"><stop offset="0" stop-color="#1b84dd" stop-opacity="0"/><stop offset="0.44" stop-color="#1b84dd" stop-opacity="0.04"/><stop offset="1" stop-color="#1b84dd" stop-opacity="0.6"/></linearGradient><linearGradient id="linear-gradient-10" x1="995.52" y1="-111.06" x2="995.52" y2="168.24" gradientTransform="matrix(0, 1, -1, 0, 1173.23, -811.8)" gradientUnits="userSpaceOnUse"><stop offset="0.69" stop-color="#fff" stop-opacity="0"/><stop offset="0.84" stop-color="#fff" stop-opacity="0.14"/><stop offset="1" stop-color="#fff" stop-opacity="0.3"/></linearGradient><linearGradient id="linear-gradient-11" x1="910.96" y1="147.4" x2="1070.37" y2="-80.26" gradientTransform="matrix(0.98, 0.2, -0.2, 0.98, 143.08, -87.91)" gradientUnits="userSpaceOnUse"><stop offset="0.29" stop-color="#3fa9f5" stop-opacity="0"/><stop offset="1" stop-color="#3fa9f5" stop-opacity="0.9"/></linearGradient><linearGradient id="linear-gradient-12" x1="1165.31" y1="1042.9" x2="1165.31" y2="879.9" gradientTransform="matrix(0.94, 0.33, -0.33, 0.94, 214.99, -173.54)" gradientUnits="userSpaceOnUse"><stop offset="0" stop-color="#1b84dd" stop-opacity="0"/><stop offset="0.76" stop-color="#1b84dd" stop-opacity="0.04"/><stop offset="0.8" stop-color="#1b84dd" stop-opacity="0.08"/><stop offset="0.86" stop-color="#1b84dd" stop-opacity="0.18"/><stop offset="0.94" stop-color="#1b84dd" stop-opacity="0.35"/><stop offset="0.96" stop-color="#1b84dd" stop-opacity="0.4"/></linearGradient><linearGradient id="linear-gradient-13" x1="824.31" y1="1042.9" x2="824.31" y2="879.9" xlink:href="#linear-gradient-12"/><linearGradient id="linear-gradient-14" x1="952.13" y1="983.9" x2="952.13" y2="212.08" xlink:href="#linear-gradient"/><linearGradient id="linear-gradient-15" x1="1366.83" y1="649.22" x2="1315.38" y2="560.11" xlink:href="#linear-gradient"/></defs><title>Full Body Astroboye</title><g id="Layer_2" data-name="Layer 2"><g id="Astronaut_New_" data-name="Astronaut (New)"><rect class="cls-1" x="741.99" y="368.3" width="505.45" height="478.74" rx="24" transform="translate(257.95 -295.6) rotate(19.38)"/><polyline class="cls-2" points="703.88 378.85 835.63 483.48 830.03 449.57 703.6 376.63"/><polyline class="cls-3" points="703.88 378.85 835.63 483.48 830.03 449.57 703.6 376.63"/><path class="cls-3" d="M573.19,167.71h92.89a0,0,0,0,1,0,0v75a23.13,23.13,0,0,1-23.13,23.13H596.32a23.13,23.13,0,0,1-23.13-23.13v-75A0,0,0,0,1,573.19,167.71Z" transform="translate(1225.79 -35.24) rotate(138.14)"/><path class="cls-3" d="M686,223.16l-26.81,2.53-3.71-39.3a14.28,14.28,0,0,1,12.88-15.55h0a14.29,14.29,0,0,1,15.56,12.87l3.59,38.08"/><path class="cls-3" d="M567.74,228.45l50,55.84L686,223.16h0l.94-.84h0l.57-.52-3.59-38.08a14.28,14.28,0,0,0-28.44,2.68l.09.9-18.65-20.82a23.14,23.14,0,0,0-32.67-1.79l-34.72,31.11A23.13,23.13,0,0,0,567.74,228.45Z"/><path class="cls-4" d="M568.69,228.78l50,55.85L687,223.49h0l.94-.85h0l.57-.52L684.87,184a14.28,14.28,0,0,0-28.43,2.69l.08.89L637.87,166.8A23.13,23.13,0,0,0,605.21,165l-34.73,31.11A23.13,23.13,0,0,0,568.69,228.78Z"/><path class="cls-5" d="M567.74,228.45l50,55.84L686,223.16h0l.94-.84h0l.57-.52-3.59-38.08a14.28,14.28,0,0,0-28.44,2.68l.09.9-18.65-20.82a23.14,23.14,0,0,0-32.67-1.79l-34.72,31.11A23.13,23.13,0,0,0,567.74,228.45Z"/><polygon class="cls-3" points="863.8 361.91 779.73 305.42 688.95 217.96 616.96 285.52 704.36 378.64 830.19 451.83 863.8 361.91"/><polygon class="cls-3" points="863.8 361.91 779.73 305.42 688.95 217.96 616.96 285.52 704.36 378.64 830.19 451.83 863.8 361.91"/><rect class="cls-3" x="911.43" y="45.08" width="73.14" height="138.96" rx="32.49" transform="translate(91.7 -308.03) rotate(19.38)"/><rect class="cls-6" x="911.43" y="45.08" width="73.14" height="138.96" rx="32.49" transform="translate(91.7 -308.03) rotate(19.38)"/><circle class="cls-7" cx="955.89" cy="91.56" r="11.52"/><circle class="cls-8" cx="939.88" cy="137.1" r="11.52"/><rect class="cls-3" x="1304.71" y="183.39" width="73.14" height="138.96" rx="32.49" transform="translate(159.87 -430.68) rotate(19.38)"/><rect class="cls-9" x="1304.71" y="183.39" width="73.14" height="138.96" rx="32.49" transform="translate(159.87 -430.68) rotate(19.38)"/><circle class="cls-10" cx="1349.17" cy="229.87" r="11.52"/><circle class="cls-11" cx="1333.16" cy="275.41" r="11.52"/><path class="cls-3" d="M1205.3,11.23c-99.07-34.85-206.55,14.13-240,109.4L904.58,293.12,1263.36,419.3,1324,246.81C1357.53,151.54,1304.38,46.07,1205.3,11.23Z"/><ellipse class="cls-12" cx="1144.64" cy="183.72" rx="165.41" ry="172.03" transform="matrix(0.33, -0.94, 0.94, 0.33, 591.57, 1202.57)"/><path class="cls-13" d="M1205.3,11.23c-99.07-34.85-206.55,14.13-240,109.4L904.58,293.12,1263.36,419.3,1324,246.81C1357.53,151.54,1304.38,46.07,1205.3,11.23Z"/><ellipse class="cls-14" cx="1144.64" cy="183.72" rx="154.43" ry="160.6" transform="translate(591.56 1202.57) rotate(-70.62)"/><rect class="cls-3" x="853.86" y="355.13" width="447.61" height="38.03" rx="19.02" transform="translate(185.17 -336.35) rotate(19.38)"/><rect class="cls-3" x="822.71" y="390.97" width="484.18" height="39.5" rx="19.75" transform="translate(196.58 -330.01) rotate(19.38)"/><rect class="cls-15" x="853.86" y="355.13" width="447.61" height="38.03" rx="19.02" transform="translate(185.17 -336.35) rotate(19.38)"/><rect class="cls-16" x="822.71" y="390.97" width="484.18" height="39.5" rx="19.75" transform="translate(196.58 -330.01) rotate(19.38)"/><ellipse class="cls-17" cx="1144.64" cy="183.72" rx="139.65" ry="145.24" transform="translate(591.57 1202.57) rotate(-70.62)"/><path class="cls-18" d="M1043,198.12C1058.33,124,1133.3,76.77,1210.43,92.74a146.88,146.88,0,0,1,55,23.76A144.81,144.81,0,0,0,1170.54,50c-77.13-16-152.1,31.22-167.45,105.38-11.27,54.46,12.74,108.33,56.84,139.42A133.62,133.62,0,0,1,1043,198.12Z"/><path class="cls-3" d="M1128.23,858.26l126.61-360,0,0L861.51,359.93h0l0,0-126.61,360-.35-.12-104,295.77,113.2,39.81,18.87,6.64L861,782.17c2.94-8.37,11.82-12.87,19.83-10.06L982,807.7c8,2.82,12.11,11.88,9.17,20.25l-98.42,279.84,132.07,46.45,104-295.77Z"/><path class="cls-3" d="M929.55,1010.49,1057,1055.32a10.88,10.88,0,0,1,6.51,13.94l-16.93,48.13a10.89,10.89,0,0,0,6.5,13.94l10.26,3.61c20.86,7.33,31.7,30.55,24.21,51.86l-12.65,36a10.88,10.88,0,0,1-13.8,6.8l-195.79-68.86.23-.65,29.63-84.25,20.58-58.5A10.88,10.88,0,0,1,929.55,1010.49Z"/><path class="cls-3" d="M793.51,962.65,666.05,917.82a10.88,10.88,0,0,0-13.8,6.8l-16.93,48.13a10.87,10.87,0,0,1-13.79,6.8l-10.26-3.61c-20.86-7.34-43.85,4-51.34,25.3l-12.65,36a10.88,10.88,0,0,0,6.51,13.94L749.58,1120l.23-.65,29.63-84.26L800,976.59A10.88,10.88,0,0,0,793.51,962.65Z"/><path class="cls-19" d="M929.55,1010.49,1057,1055.32a10.88,10.88,0,0,1,6.51,13.94l-16.93,48.13a10.89,10.89,0,0,0,6.5,13.94l10.26,3.61c20.86,7.33,31.7,30.55,24.21,51.86l-12.65,36a10.88,10.88,0,0,1-13.8,6.8l-195.79-68.86.23-.65,29.63-84.25,20.58-58.5A10.88,10.88,0,0,1,929.55,1010.49Z"/><path class="cls-20" d="M793.51,962.65,666.05,917.82a10.88,10.88,0,0,0-13.8,6.8l-16.93,48.13a10.87,10.87,0,0,1-13.79,6.8l-10.26-3.61c-20.86-7.34-43.85,4-51.34,25.3l-12.65,36a10.88,10.88,0,0,0,6.51,13.94L749.58,1120l.23-.65,29.63-84.26L800,976.59A10.88,10.88,0,0,0,793.51,962.65Z"/><rect class="cls-21" x="646.36" y="924.7" width="163.66" height="30.75" rx="14" transform="translate(353.14 -188.35) rotate(19.38)"/><rect class="cls-21" x="911.45" y="1017.93" width="163.66" height="30.75" rx="14" transform="translate(399.08 -271.01) rotate(19.38)"/><rect class="cls-22" x="744.59" y="706.78" width="418" height="40" transform="translate(295.14 -275.21) rotate(19.38)"/><rect class="cls-23" x="735.92" y="744.92" width="418" height="13" transform="translate(302.82 -270.94) rotate(19.38)"/><rect class="cls-23" x="753.18" y="695.87" width="418" height="13" transform="translate(287.52 -279.44) rotate(19.38)"/><rect class="cls-22" x="800.13" y="634.98" width="25" height="90" transform="translate(271.63 -231.09) rotate(19.38)"/><rect class="cls-22" x="940.69" y="684.42" width="25" height="90" transform="translate(295.99 -274.93) rotate(19.38)"/><rect class="cls-22" x="1080.31" y="733.52" width="25" height="90" transform="translate(320.19 -318.47) rotate(19.38)"/><path class="cls-21" d="M868.48,1151.73l-3.16,9,195.79,68.86c5.61,2,11.38.09,12.89-4.19l.42-1.21Z"/><path class="cls-21" d="M752.73,1111l-3.15,9-195.79-68.86c-5.61-2-8.93-7.05-7.42-11.34l.42-1.2Z"/><path class="cls-3" d="M1241.48,796.75l86.45-10.08a7.61,7.61,0,0,0,6.69-8.4l-16.9-155.69a13.43,13.43,0,0,0-.62-2.81l-35.36-106.25a13.76,13.76,0,0,0-8.49-8.63l-18.81-6.62-43.06,122.45a1.74,1.74,0,0,0-.08.75L1233,790.16A7.61,7.61,0,0,0,1241.48,796.75Z"/><path class="cls-24" d="M1334.62,778.27l-16.9-155.69a13.43,13.43,0,0,0-.62-2.81l-35.36-106.25a13.76,13.76,0,0,0-8.49-8.63l-18.46-6.5,0-.13,0,0L861.51,359.93h0l0,0-.12.34-81.61-54.83L689,218l-72,67.56L703.78,378l.1.83,118,93.69-87,247.37-.35-.12-104,295.77,113.2,39.81,18.87,6.64L861,782.17c2.94-8.37,11.82-12.87,19.83-10.06L982,807.7c8,2.82,12.11,11.88,9.17,20.25l-98.42,279.84,132.07,46.45,104-295.77-.59-.21,83.13-236.36L1233,790.16a7.61,7.61,0,0,0,8.44,6.59l86.45-10.08A7.61,7.61,0,0,0,1334.62,778.27Z"/><rect class="cls-22" x="782.84" y="599.41" width="425" height="13" rx="5" transform="translate(257.4 -295.91) rotate(19.38)"/><rect class="cls-22" x="799.43" y="552.24" width="425" height="13" rx="5" transform="translate(242.69 -304.08) rotate(19.38)"/><rect class="cls-25" x="904.31" y="520.06" width="200" height="125" transform="translate(250.16 -300.21) rotate(19.38)"/><circle class="cls-26" cx="953.52" cy="526.54" r="10"/><circle class="cls-27" cx="941.91" cy="559.55" r="10"/><circle class="cls-28" cx="930.3" cy="592.57" r="10"/><rect class="cls-29" x="975.08" y="554.75" width="63.63" height="51.74" transform="translate(249.66 -301.17) rotate(19.38)"/><rect class="cls-23" x="1064.93" y="566.43" width="35" height="13" transform="translate(251.39 -326.67) rotate(19.38)"/><rect class="cls-23" x="1057.3" y="588.13" width="35" height="13" transform="translate(258.16 -322.91) rotate(19.38)"/><rect class="cls-23" x="1049.67" y="609.83" width="35" height="13" transform="translate(264.93 -319.15) rotate(19.38)"/><rect class="cls-23" x="1042.04" y="631.52" width="35" height="13" transform="translate(271.69 -315.39) rotate(19.38)"/><path class="cls-3" d="M1244.09,791.53H1337a0,0,0,0,1,0,0v75a23.13,23.13,0,0,1-23.13,23.13h-46.62a23.13,23.13,0,0,1-23.13-23.13v-75A0,0,0,0,1,1244.09,791.53Z" transform="translate(-87.66 153.1) rotate(-6.57)"/><path class="cls-3" d="M1240.05,797l23.34,13.42-19.68,34.22a14.27,14.27,0,0,1-19.49,5.27h0a14.28,14.28,0,0,1-5.26-19.5L1238,797.26"/><path class="cls-3" d="M1339.64,861l-8.58-74.48-91,10.47h0l-1.26.14h0l-.77.09L1219,830.42a14.27,14.27,0,1,0,24.75,14.23l.45-.78,3.2,27.77A23.13,23.13,0,0,0,1273,892l46.32-5.33A23.15,23.15,0,0,0,1339.64,861Z"/><path class="cls-30" d="M1339.64,861l-8.58-74.48-91,10.47h0l-1.26.14h0l-.77.09L1219,830.42a14.27,14.27,0,1,0,24.75,14.23l.45-.78,3.2,27.77A23.13,23.13,0,0,0,1273,892l46.32-5.33A23.15,23.15,0,0,0,1339.64,861Z"/><path class="cls-30" d="M1339.64,861l-8.58-74.48-91,10.47h0l-1.26.14h0l-.77.09L1219,830.42a14.27,14.27,0,1,0,24.75,14.23l.45-.78,3.2,27.77A23.13,23.13,0,0,0,1273,892l46.32-5.33A23.15,23.15,0,0,0,1339.64,861Z"/><rect class="cls-21" x="1274.58" y="727.6" width="17.65" height="112.84" rx="6.95" transform="translate(1926.68 -575.4) rotate(83.9)"/><rect class="cls-21" x="646.96" y="197.33" width="17.65" height="112.84" rx="6.95" transform="translate(380.39 -393.24) rotate(45.79)"/><path class="cls-31" d="M716.6,644.09c-127-16.76-282.83-17.79-349.31,72.2-71.87,97.27,5.74,239.94-60.87,292.36C271.3,1036.29,193.7,1040.72,2.62,923"/></g></g></svg>