<?xml version="1.0" standalone="no"?>
<!DOCTYPE svg PUBLIC "-//W3C//DTD SVG 20010904//EN"
 "http://www.w3.org/TR/2001/REC-SVG-20010904/DTD/svg10.dtd">
<svg version="1.0" xmlns="http://www.w3.org/2000/svg"
 width="5120.000000pt" height="750.000000pt" viewBox="0 0 5120.000000 750.000000"
 preserveAspectRatio="xMidYMid meet">
<metadata>
Created by potrace 1.15, written by Peter Selinger 2001-2017
</metadata>
<g transform="translate(0.000000,750.000000) scale(0.100000,-0.100000)"
fill="#000000" stroke="none">
<path d="M22530 6263 c0 -5 23 -58 51 -120 l52 -112 -51 -123 c-29 -68 -52
-127 -52 -131 0 -4 1382 -7 3070 -7 1689 0 3070 3 3070 7 0 4 -23 63 -52 131
l-51 123 52 112 c28 62 51 115 51 120 0 4 -1381 7 -3070 7 -1688 0 -3070 -3
-3070 -7z"/>
<path d="M22520 5653 c0 -4 84 -71 185 -148 l184 -140 1 -622 0 -623 -185 0
-185 0 0 -38 c0 -59 -36 -188 -76 -272 -46 -97 -129 -205 -207 -270 -70 -58
-229 -139 -327 -167 -63 -17 -421 -18 -10987 -21 l-10923 -2 0 -1675 0 -1675
11820 0 11820 0 2 2193 c3 2054 4 2196 21 2250 46 155 132 262 258 321 57 27
258 80 868 230 437 108 800 196 808 196 8 0 379 -90 825 -200 651 -161 821
-206 869 -232 116 -61 204 -174 246 -314 17 -56 18 -186 21 -2251 l2 -2193
11820 0 11820 0 0 1675 0 1675 -10922 2 -10923 3 -80 23 c-162 48 -316 146
-417 268 -90 108 -178 324 -178 436 l0 38 -185 0 -185 0 2 622 3 622 182 140
c100 77 181 141 180 142 -9 6 -6157 13 -6157 7z"/>
</g>
</svg>
