<svg xmlns="http://www.w3.org/2000/svg" xmlns:xlink="http://www.w3.org/1999/xlink" viewBox="0 0 798.39 588"><defs><style>.cls-1{opacity:0.9;filter:url(#luminosity-noclip);}.cls-16,.cls-2,.cls-5{mix-blend-mode:hard-light;}.cls-3{isolation:isolate;}.cls-4,.cls-6{opacity:0.75;}.cls-5{opacity:0.55;fill:url(#linear-gradient);}.cls-6{fill:url(#linear-gradient-2);}.cls-7{fill:url(#linear-gradient-3);}.cls-13,.cls-8{opacity:0.5;}.cls-14,.cls-17,.cls-8{mix-blend-mode:overlay;}.cls-9{fill:#ffafcb;}.cls-10{opacity:0.76;}.cls-11{fill:url(#linear-gradient-4);}.cls-12{fill:none;stroke:#fff;stroke-miterlimit:10;}.cls-14{fill:#fff;opacity:0.2;}.cls-15{opacity:0.25;}.cls-16{opacity:0.8;fill:url(#linear-gradient-5);}.cls-17{opacity:0.4;fill:url(#linear-gradient-6);}.cls-18{mask:url(#mask);}.cls-19{mix-blend-mode:screen;}.cls-20{mix-blend-mode:color-dodge;}.cls-21{fill:url(#linear-gradient-7);}</style><linearGradient id="linear-gradient" x1="541.02" y1="436.56" x2="226.44" y2="121.98" gradientUnits="userSpaceOnUse"><stop offset="0" stop-color="#ffafcb" stop-opacity="0"/><stop offset="1" stop-color="#dd5a57" stop-opacity="0.7"/></linearGradient><linearGradient id="linear-gradient-2" x1="301.16" y1="365.21" x2="281.74" y2="255.07" gradientUnits="userSpaceOnUse"><stop offset="0" stop-color="#4268db"/><stop offset="0.02" stop-color="#446dda"/><stop offset="0.15" stop-color="#4c87d2"/><stop offset="0.3" stop-color="#539bcc"/><stop offset="0.46" stop-color="#57a9c8"/><stop offset="0.67" stop-color="#5ab1c6"/><stop offset="1" stop-color="#5bb4c5"/></linearGradient><linearGradient id="linear-gradient-3" x1="417.5" y1="488.73" x2="379.78" y2="274.84" gradientUnits="userSpaceOnUse"><stop offset="0" stop-color="#4268db"/><stop offset="0.02" stop-color="#436ada"/><stop offset="0.45" stop-color="#5092cf"/><stop offset="0.79" stop-color="#58abc8"/><stop offset="1" stop-color="#5bb4c5"/></linearGradient><linearGradient id="linear-gradient-4" x1="409.58" y1="490.13" x2="380.55" y2="325.54" gradientUnits="userSpaceOnUse"><stop offset="0" stop-color="#f8d67e"/><stop offset="0.17" stop-color="#f7d682" stop-opacity="0.98"/><stop offset="0.34" stop-color="#f5d78e" stop-opacity="0.94"/><stop offset="0.52" stop-color="#f2d8a2" stop-opacity="0.86"/><stop offset="0.69" stop-color="#eddabd" stop-opacity="0.75"/><stop offset="0.87" stop-color="#e6dce0" stop-opacity="0.62"/><stop offset="1" stop-color="#e1deff" stop-opacity="0.5"/></linearGradient><linearGradient id="linear-gradient-5" x1="473.37" y1="471.51" x2="294.08" y2="87.02" gradientUnits="userSpaceOnUse"><stop offset="0" stop-color="#dfff3b"/><stop offset="0.01" stop-color="#e0ff41" stop-opacity="0.93"/><stop offset="0.04" stop-color="#e3ff53" stop-opacity="0.74"/><stop offset="0.07" stop-color="#e6ff62" stop-opacity="0.56"/><stop offset="0.1" stop-color="#e8ff70" stop-opacity="0.41"/><stop offset="0.13" stop-color="#eaff7b" stop-opacity="0.28"/><stop offset="0.17" stop-color="#ebff84" stop-opacity="0.18"/><stop offset="0.21" stop-color="#edff8b" stop-opacity="0.1"/><stop offset="0.26" stop-color="#edff90" stop-opacity="0.04"/><stop offset="0.31" stop-color="#eeff93" stop-opacity="0.01"/><stop offset="0.4" stop-color="#eeff94" stop-opacity="0"/></linearGradient><linearGradient id="linear-gradient-6" x1="541.02" y1="436.56" x2="226.44" y2="121.98" gradientUnits="userSpaceOnUse"><stop offset="0" stop-color="#fff" stop-opacity="0"/><stop offset="1" stop-color="#fff"/></linearGradient><filter id="luminosity-noclip" x="0" y="0" width="798.39" height="588" filterUnits="userSpaceOnUse" color-interpolation-filters="sRGB"><feFlood flood-color="#fff" result="bg"/><feBlend in="SourceGraphic" in2="bg"/></filter><mask id="mask" x="0" y="0" width="798.39" height="588" maskUnits="userSpaceOnUse"><g class="cls-1"><path class="cls-2" d="M588.93,166.27A234.17,234.17,0,0,0,383.73,45C254.37,45,149.5,149.91,149.5,279.27a233.2,233.2,0,0,0,50.24,145Z"/></g></mask><linearGradient id="linear-gradient-7" x1="485.16" y1="396.45" x2="313.23" y2="191.55" gradientUnits="userSpaceOnUse"><stop offset="0" stop-color="#dd5a57"/><stop offset="0.1" stop-color="#d95855" stop-opacity="0.99"/><stop offset="0.21" stop-color="#cc5350" stop-opacity="0.96"/><stop offset="0.32" stop-color="#b84b48" stop-opacity="0.92"/><stop offset="0.43" stop-color="#9b3f3d" stop-opacity="0.85"/><stop offset="0.55" stop-color="#75302e" stop-opacity="0.76"/><stop offset="0.66" stop-color="#471d1c" stop-opacity="0.66"/><stop offset="0.77" stop-color="#120707" stop-opacity="0.54"/><stop offset="0.8" stop-opacity="0.5"/></linearGradient></defs><title>Landing Page Planet_1</title><g class="cls-3"><g id="Layer_2" data-name="Layer 2"><g id="Layer_2-2" data-name="Layer 2"><g id="Base" class="cls-4"><circle class="cls-5" cx="383.73" cy="279.27" r="222.44"/></g><path class="cls-6" d="M404.35,283.1a212.49,212.49,0,0,1-68.21,0c-42.48-7-57.22-23.41-84.88-22.1C233,261.86,206,270.57,174,311.09c9.8,14.19,26.17,32.48,51.54,44.19,49.95,23.05,112.7,10.35,150.06-26.52A121.12,121.12,0,0,0,404.35,283.1Z"/><path class="cls-7" d="M532.88,264.83A168.1,168.1,0,0,0,481,258.65c-32.49,1.33-57.3,12.25-80.25,25.58C365,305,333.76,331.51,285,336.72c-27.9,3-64.87-.67-111-25.59h0c.16,1.09.35,2.17.53,3.25.1.58.19,1.16.29,1.74.18,1,.37,2,.56,3,.12.65.24,1.31.37,1.95.2,1,.41,1.94.61,2.9.15.67.29,1.34.44,2,.21,1,.44,1.91.67,2.85.16.67.32,1.34.49,2,.23.94.48,1.88.72,2.81l.54,2c.26.93.52,1.86.79,2.79.19.65.39,1.3.58,1.95.29.93.57,1.87.86,2.8.2.62.41,1.24.61,1.87.31.94.62,1.89.94,2.83.19.56.4,1.12.59,1.68.35,1,.7,2,1.06,3,.09.24.19.47.28.71.91,2.43,1.86,4.85,2.85,7.23l.36.88c.4.95.82,1.89,1.23,2.84.25.55.48,1.11.73,1.66.4.89.81,1.77,1.22,2.66.28.6.56,1.2.85,1.79.4.86.82,1.71,1.24,2.55.3.62.61,1.24.92,1.85.42.83.85,1.66,1.28,2.48.32.62.65,1.24,1,1.86q.64,1.21,1.32,2.43c.34.62.68,1.23,1,1.84.45.8.91,1.6,1.37,2.39.35.61.71,1.21,1.07,1.82.47.79.95,1.58,1.43,2.36l1.09,1.76c.5.79,1,1.58,1.5,2.36.35.56.72,1.1,1.08,1.65.53.8,1.06,1.61,1.6,2.41.2.3.41.59.62.89q1.83,2.67,3.74,5.28c.37.5.73,1,1.11,1.52.54.72,1.09,1.44,1.64,2.15s.87,1.15,1.32,1.72l1.63,2.06c.47.58.93,1.16,1.41,1.74s1.1,1.33,1.66,2l1.46,1.74,1.69,1.94,1.52,1.71c.57.64,1.14,1.27,1.72,1.9l1.58,1.69c.57.61,1.15,1.23,1.74,1.84s1.09,1.12,1.64,1.67,1.17,1.2,1.76,1.79l1.71,1.67,1.77,1.71c.6.57,1.22,1.14,1.83,1.7s1.15,1.08,1.73,1.6c1.15,1.05,2.32,2.08,3.49,3.11l1.65,1.39c.69.59,1.37,1.18,2.07,1.75l1.79,1.46,2,1.61,1.85,1.44c.67.51,1.33,1,2,1.54l1.89,1.41,2,1.49,1.92,1.36,2.09,1.45,1.94,1.31c.71.48,1.43.95,2.15,1.42l1.94,1.25,2.24,1.4,1.91,1.18c.79.48,1.59.95,2.4,1.42l1.81,1.06c.95.55,1.9,1.07,2.86,1.6l1.41.79q2.13,1.15,4.27,2.25c.51.27,1,.52,1.54.77.95.48,1.9,1,2.86,1.43.61.3,1.23.58,1.85.87.87.42,1.74.83,2.62,1.23l2,.88c.85.37,1.7.75,2.56,1.11l2,.86,2.55,1,2.06.82,2.59,1c.68.26,1.37.51,2.07.76l2.65.94,2,.7,2.78.91,2,.62,3,.91,1.74.51c1.34.38,2.68.74,4,1.09l.81.22c1.61.42,3.23.81,4.86,1.19l1.55.34c1.13.26,2.25.51,3.38.74l1.92.38,3,.59,2.08.36,2.94.49,2.15.32,2.91.41,2.19.28c1,.12,1.95.23,2.93.33l2.19.23c1,.1,2,.19,3,.27l2.13.17c1.05.08,2.1.14,3.15.2.67,0,1.35.09,2,.12,1.16.06,2.32.09,3.48.13.57,0,1.14.05,1.72.06,1.74,0,3.48.07,5.23.07s3.57,0,5.35-.07c.6,0,1.19-.05,1.79-.07,1.18,0,2.36-.07,3.54-.13l2.11-.13c1.06-.06,2.12-.12,3.18-.2l2.25-.19,3-.27,2.33-.26c1-.1,1.93-.21,2.89-.33l2.37-.32c.94-.12,1.87-.25,2.8-.39l2.4-.38,2.74-.46,2.41-.44,2.68-.52,2.42-.5,2.63-.58,2.42-.56,2.58-.63,2.43-.63,2.53-.69L443,483l2.49-.74,2.41-.75,2.44-.8c.81-.26,1.61-.53,2.42-.81l2.37-.84,2.43-.88,2.31-.88,2.43-.95,2.25-.93c.82-.33,1.63-.67,2.44-1l2.17-.95c.82-.36,1.65-.72,2.46-1.1s1.39-.64,2.08-1,1.67-.78,2.49-1.18l2-1,2.54-1.28c.61-.31,1.21-.64,1.82-1l2.64-1.41,1.54-.86,2.85-1.6,1-.61A213.73,213.73,0,0,0,509.49,450l.65-.48c1-.77,2.05-1.55,3.07-2.33l.88-.68c1-.77,1.94-1.54,2.91-2.32l1-.78c.94-.77,1.87-1.55,2.8-2.34l1-.84c.92-.79,1.82-1.58,2.72-2.38l1-.89c.89-.81,1.78-1.62,2.65-2.44.33-.3.66-.6,1-.91.88-.83,1.75-1.66,2.61-2.5l.94-.92c.86-.85,1.72-1.72,2.57-2.58l.9-.93c.85-.88,1.69-1.76,2.53-2.66l.85-.91c.84-.91,1.67-1.83,2.5-2.75.26-.3.52-.6.79-.89.83-.95,1.66-1.9,2.47-2.86l.72-.85c.83-1,1.65-2,2.47-3l.63-.78q1.24-1.55,2.46-3.12l.54-.7c.83-1.08,1.65-2.17,2.47-3.28l.41-.57c.84-1.15,1.68-2.31,2.5-3.48.09-.13.19-.26.28-.4.86-1.23,1.71-2.46,2.54-3.71,0-.06.07-.12.11-.17a211.16,211.16,0,0,0,30.69-72.48V324c.35-1.61.68-3.24,1-4.86a.68.68,0,0,0,0-.14q.46-2.41.87-4.86l0-.16q.4-2.43.75-4.89l0-.16c.23-1.64.44-3.28.63-4.93l0-.15c.19-1.66.37-3.32.52-5a.38.38,0,0,0,0-.1c.16-1.69.29-3.39.41-5.09C576.64,281.58,555.66,271.13,532.88,264.83Z"/><g class="cls-4"><g class="cls-8"><path class="cls-9" d="M383.73,45C254.37,45,149.5,149.91,149.5,279.27S254.37,513.49,383.73,513.49,618,408.63,618,279.27,513.09,45,383.73,45Zm0,446.36c-117,0-212.13-95.16-212.13-212.13S266.76,67.14,383.73,67.14,595.86,162.3,595.86,279.27,500.7,491.4,383.73,491.4Z"/></g></g><g class="cls-10"><path class="cls-11" d="M383.73,491.4c92.39,0,171.16-59.38,200.19-142-29.84-21.22-66-37.69-106.55-36.78-78.51,1.75-110.89,67.18-186.65,74.15-26.2,2.41-60.7-1.89-103.31-27.2C219.13,436.85,295.17,491.4,383.73,491.4Z"/></g><path class="cls-12" d="M247.82,180.73a168.2,168.2,0,0,1,15.39-18.3"/><path class="cls-12" d="M283.64,144.49a167.55,167.55,0,0,1,53-26.44"/><path class="cls-12" d="M270.57,155.29a169.06,169.06,0,0,1,13.07-10.8"/><g class="cls-13"><path class="cls-14" d="M492.26,97.08A210.82,210.82,0,0,1,522.2,205.61c0,117-95.16,212.13-212.13,212.13A210.79,210.79,0,0,1,201.54,387.8,212.19,212.19,0,0,0,383.73,491.4c117,0,212.13-95.16,212.13-212.13A212.23,212.23,0,0,0,492.26,97.08Z"/></g><g id="Low_Yellow" data-name="Low Yellow" class="cls-15"><circle class="cls-16" cx="383.73" cy="279.27" r="212.13"/></g><g id="Shine"><circle class="cls-17" cx="383.73" cy="279.27" r="222.44"/></g><g class="cls-18"><g class="cls-19"><g class="cls-20"><path class="cls-21" d="M791.56,19.26c-40.39-57.68-248.8,18.56-465.5,170.3S-33.56,511.06,6.83,568.74s248.8-18.56,465.5-170.3S832,76.94,791.56,19.26ZM462.82,384.87C254,531.1,56.2,609,21.06,558.78S126.73,349.37,335.57,203.13,742.19-21,777.33,29.22,671.66,238.63,462.82,384.87Z"/></g></g></g></g></g></g></svg>